<svg width="512" height="512" xmlns="http://www.w3.org/2000/svg">

 <g>
  <title>background</title>
  <rect fill="none" id="canvas_background" height="602" width="802" y="-1" x="-1"/>
 </g>
 <g>
  <title>Layer 1</title>
  <g id="svg_1">
   <g id="svg_2">
    <path fill="#888888" id="svg_3" d="m256,-1c-141.16,0 -256,114.84 -256,256s114.84,256 256,256s256,-114.84 256,-256s-114.84,-256 -256,-256zm0,475.429c-120.997,0 -219.429,-98.432 -219.429,-219.429s98.432,-219.429 219.429,-219.429s219.429,98.432 219.429,219.429s-98.432,219.429 -219.429,219.429z"/>
   </g>
  </g>
  <g id="svg_4">
   <g id="svg_5">
    <path fill="#888888" id="svg_6" d="m256,134.095c-10.1,0 -18.286,8.186 -18.286,18.286l0,207.238c0,10.1 8.186,18.286 18.286,18.286c10.1,0 18.286,-8.186 18.286,-18.286l0,-207.238c0,-10.1 -8.186,-18.286 -18.286,-18.286z"/>
   </g>
  </g>
  <g id="svg_7">
   <g id="svg_8">
    <path fill="#888888" id="svg_9" d="m359.619,237.714l-207.238,0c-10.1,0 -18.286,8.186 -18.286,18.286c0,10.1 8.186,18.286 18.286,18.286l207.238,0c10.1,0 18.286,-8.186 18.286,-18.286c0,-10.1 -8.186,-18.286 -18.286,-18.286z"/>
   </g>
  </g>
  <g id="svg_10"/>
  <g id="svg_11"/>
  <g id="svg_12"/>
  <g id="svg_13"/>
  <g id="svg_14"/>
  <g id="svg_15"/>
  <g id="svg_16"/>
  <g id="svg_17"/>
  <g id="svg_18"/>
  <g id="svg_19"/>
  <g id="svg_20"/>
  <g id="svg_21"/>
  <g id="svg_22"/>
  <g id="svg_23"/>
  <g id="svg_24"/>
 </g>
</svg>