<svg width="512" height="512" xmlns="http://www.w3.org/2000/svg">
 <g>
  <title>background</title>
  <rect x="-1" y="-1" width="514" height="514" id="canvas_background" fill="none"/>
 </g>

 <g>
  <title>Layer 1</title>
  <path d="m432,35l-352,0c-44.11328,0 -80,35.88672 -80,80l0,280c0,44.11328 35.88672,80 80,80l190,0c7.62891,0 14.59375,-4.33984 17.95703,-11.19141c3.35938,-6.84765 2.53125,-15.01562 -2.14062,-21.04687l-52.3125,-67.60938l144.99218,-184.42578l93.50391,111.54688l0,33.72656c0,11.04687 8.95313,20 20,20s20,-8.95313 20,-20l0,-221c0,-44.11328 -35.88672,-80 -80,-80zm-38.67187,111.15234c-3.8711,-4.61718 -9.60938,-7.2539 -15.64063,-7.14843c-6.02734,0.09375 -11.6875,2.89843 -15.41016,7.63672l-154.01562,195.89453l-52.44531,-67.77344c-3.78907,-4.89844 -9.62891,-7.76172 -15.81641,-7.76172c-0.00781,0 -0.01953,0 -0.02734,0c-6.19922,0.00781 -12.04688,2.89063 -15.82422,7.80469l-44.01563,57.21875c-6.73437,8.75781 -5.09765,21.3125 3.65625,28.04687c8.75781,6.73828 21.3125,5.09766 28.04688,-3.65625l28.21093,-36.67187l89.1875,115.25781l-149.23437,0c-22.05469,0 -40,-17.94531 -40,-40l0,-280c0,-22.05469 17.94531,-40 40,-40l352,0c22.05469,0 40,17.94531 40,40l0,125.00781l-78.67187,-93.85547zm-253.32813,-39.15234c-33.08594,0 -60,26.91406 -60,60s26.91406,60 60,60s60,-26.91406 60,-60s-26.91406,-60 -60,-60zm0,80c-11.02734,0 -20,-8.97266 -20,-20s8.97266,-20 20,-20s20,8.97266 20,20s-8.97266,20 -20,20zm372,229c0,11.04688 -8.95312,20 -20,20l-55,0l0,55c0,11.04688 -8.95312,20 -20,20s-20,-8.95312 -20,-20l0,-55l-55,0c-11.04687,0 -20,-8.95312 -20,-20s8.95313,-20 20,-20l55,0l0,-55c0,-11.04687 8.95313,-20 20,-20s20,8.95313 20,20l0,55l55,0c11.04688,0 20,8.95313 20,20zm0,0" id="svg_1" fill="#dddddd"/>
 </g>
</svg>