<svg width="511.999" height="511.999" xmlns="http://www.w3.org/2000/svg">

 <g>
  <title>background</title>
  <rect fill="none" id="canvas_background" height="602" width="802" y="-1" x="-1"/>
 </g>
 <g>
  <title>Layer 1</title>
  <g id="svg_1">
   <g id="svg_2">
    <path fill="#ffffff" id="svg_3" d="m113.304,396.177c-41.405,-40.668 -66.722,-93.368 -72.6,-150.216c-22.006,27.818 -33.938,61.937 -33.883,97.745c0.037,23.29 5.279,46.441 15.212,67.376l-20.482,59.607c-3.521,10.247 -0.949,21.373 6.713,29.036c5.392,5.392 12.501,8.264 19.812,8.264c3.076,0 6.188,-0.508 9.223,-1.551l59.609,-20.483c20.935,9.933 44.086,15.175 67.376,15.212c36.509,0.049 71.256,-12.338 99.361,-35.168c-56.512,-5.113 -109.229,-29.443 -150.341,-69.822z"/>
   </g>
  </g>
  <g id="svg_4">
   <g id="svg_5">
    <path fill="#ffffff" id="svg_6" d="m510.156,401.842l-29.737,-86.542c14.334,-29.302 21.909,-61.89 21.96,-94.679c0.088,-57.013 -21.97,-110.92 -62.112,-151.79c-40.15,-40.879 -93.652,-63.889 -150.652,-64.792c-59.105,-0.935 -114.661,21.547 -156.428,63.313c-41.767,41.767 -64.253,97.322 -63.317,156.43c0.903,56.999 23.913,110.502 64.79,150.652c40.79,40.064 94.56,62.116 151.451,62.114c0.112,0 0.23,0 0.34,0c32.79,-0.051 65.378,-7.626 94.68,-21.96l86.544,29.738c3.606,1.239 7.304,1.843 10.959,1.843c8.688,0 17.136,-3.412 23.545,-9.822c9.105,-9.106 12.161,-22.326 7.977,-34.505zm-203.152,-106.514l-111.673,0c-8.416,0 -15.238,-6.823 -15.238,-15.238c0,-8.416 6.823,-15.238 15.238,-15.238l111.672,0c8.416,0 15.238,6.823 15.238,15.238c0,8.416 -6.821,15.238 -15.237,15.238zm69.888,-62.669l-181.56,0c-8.416,0 -15.238,-6.823 -15.238,-15.238s6.823,-15.238 15.238,-15.238l181.56,0c8.416,0 15.238,6.823 15.238,15.238s-6.822,15.238 -15.238,15.238zm0,-62.671l-181.56,0c-8.416,0 -15.238,-6.823 -15.238,-15.238c0,-8.416 6.823,-15.238 15.238,-15.238l181.56,0c8.416,0 15.238,6.823 15.238,15.238c0,8.415 -6.822,15.238 -15.238,15.238z"/>
   </g>
  </g>
  <g id="svg_7"/>
  <g id="svg_8"/>
  <g id="svg_9"/>
  <g id="svg_10"/>
  <g id="svg_11"/>
  <g id="svg_12"/>
  <g id="svg_13"/>
  <g id="svg_14"/>
  <g id="svg_15"/>
  <g id="svg_16"/>
  <g id="svg_17"/>
  <g id="svg_18"/>
  <g id="svg_19"/>
  <g id="svg_20"/>
  <g id="svg_21"/>
 </g>
</svg>