<svg width="512" height="512" xmlns="http://www.w3.org/2000/svg">

 <g>
  <title>background</title>
  <rect fill="none" id="canvas_background" height="602" width="802" y="-1" x="-1"/>
 </g>
 <g>
  <title>Layer 1</title>
  <g id="svg_1">
   <g id="svg_2">
    <g id="svg_3">
     <path id="svg_4" fill="#ffffff" d="m426.667,0l-320,0c-23.521,0 -42.667,19.135 -42.667,42.667l0,42.667l-10.667,0c-5.896,0 -10.667,4.771 -10.667,10.667s4.771,10.667 10.667,10.667l42.667,0c5.875,0 10.667,4.781 10.667,10.667c0,5.885 -4.792,10.667 -10.667,10.667l-21.333,0c-5.896,-0.002 -10.667,4.769 -10.667,10.665l0,53.333l-10.667,0c-5.896,0 -10.667,4.771 -10.667,10.667c0,5.896 4.771,10.667 10.667,10.667l42.667,0c5.875,0 10.667,4.781 10.667,10.667s-4.792,10.666 -10.667,10.666l-21.333,0c-5.896,0 -10.667,4.771 -10.667,10.667l0,53.333l-10.667,0c-5.896,0 -10.667,4.771 -10.667,10.667c0,5.896 4.771,10.667 10.667,10.667l42.667,0c5.875,0 10.667,4.781 10.667,10.667c0,5.885 -4.792,10.667 -10.667,10.667l-21.333,0c-5.896,-0.002 -10.667,4.769 -10.667,10.665l0,53.333l-10.667,0c-5.896,0 -10.667,4.771 -10.667,10.667c0,5.896 4.771,10.667 10.667,10.667l42.667,0c5.875,0 10.667,4.781 10.667,10.667c0,5.885 -4.792,10.667 -10.667,10.667l-21.333,0c-5.896,-0.001 -10.667,4.77 -10.667,10.666l0,10.667c0,23.531 19.146,42.666 42.667,42.666l320,0c23.521,0 42.667,-19.135 42.667,-42.667l0,-426.666c-0.001,-23.532 -19.146,-42.667 -42.667,-42.667zm-21.334,338.958c0,13.073 -10.646,23.708 -23.708,23.708c-128.083,0 -232.292,-104.208 -232.292,-232.292c0,-13.073 10.646,-23.708 23.708,-23.708l45.625,0c13.063,0 23.708,10.635 23.708,23.708c0,14.813 2.313,29.344 6.875,43.208c2.729,8.646 0.479,17.854 -5.833,24.167l-18.688,24.885c16.063,29.51 34.896,48.344 64.625,64.615l26,-19.635c5.25,-5.365 14.729,-7.615 23.208,-4.698c13.708,4.521 28.25,6.844 43.063,6.844c13.063,0 23.708,10.635 23.708,23.708l0,45.49l0.001,0z"/>
    </g>
   </g>
   <g id="svg_5"/>
   <g id="svg_6"/>
   <g id="svg_7"/>
   <g id="svg_8"/>
   <g id="svg_9"/>
   <g id="svg_10"/>
   <g id="svg_11"/>
   <g id="svg_12"/>
   <g id="svg_13"/>
   <g id="svg_14"/>
   <g id="svg_15"/>
   <g id="svg_16"/>
   <g id="svg_17"/>
   <g id="svg_18"/>
   <g id="svg_19"/>
  </g>
 </g>
</svg>