<svg width="192" height="192" xmlns="http://www.w3.org/2000/svg">
 <g>
  <title>background</title>
  <rect x="-1" y="-1" width="194" height="194" id="canvas_background" fill="none"/>
 </g>

 <g>
  <title>Layer 1</title>
  <g id="_06-trash">
   <path d="m184,32l-56,0l0,-8a24.027,24.027 0 0 0 -24,-24l-16,0a24.027,24.027 0 0 0 -24,24l0,8l-56,0l0,16l8.84,0l13.627,122.651a23.976,23.976 0 0 0 23.854,21.349l83.358,0a23.976,23.976 0 0 0 23.854,-21.35l13.627,-122.65l8.84,0l0,-16zm-104,-8a8.009,8.009 0 0 1 8,-8l16,0a8.009,8.009 0 0 1 8,8l0,8l-32,0l0,-8zm65.63,144.883a7.992,7.992 0 0 1 -7.951,7.117l-83.358,0a7.992,7.992 0 0 1 -7.951,-7.116l-13.432,-120.884l126.124,0l-13.432,120.883z" id="svg_1" fill="#dddddd"/>
   <path d="m88,64l16,0l0,96l-16,0l0,-96z" id="svg_2" fill="#dddddd"/>
   <path d="m120.06822,159.2895l7.99564,-96.044l15.952,1.328l-7.99564,96.044l-15.952,-1.328z" id="svg_3" fill="#dddddd"/>
   <path d="m48.04822,64.6965l15.952,-1.328l7.99564,96.044l-15.952,1.328l-7.99564,-96.044z" id="svg_4" fill="#dddddd"/>
  </g>
 </g>
</svg>