<svg width="512" height="512" xmlns="http://www.w3.org/2000/svg">

 <g>
  <title>background</title>
  <rect fill="none" id="canvas_background" height="602" width="802" y="-1" x="-1"/>
 </g>
 <g>
  <title>Layer 1</title>
  <g id="svg_1">
   <path id="svg_2" fill="#fff200" class="active-path" d="m497,42.358l-27.571,0l0,-27.358c0,-8.284 -6.716,-15 -15,-15s-15,6.716 -15,15l0,27.358l-27.57,0c-8.284,0 -15,6.716 -15,15s6.716,15 15,15l27.57,0l0,27.358c0,8.284 6.716,15 15,15s15,-6.716 15,-15l0,-27.358l27.571,0c8.284,0 15,-6.716 15,-15s-6.716,-15 -15,-15z"/>
   <path id="svg_3" fill="#fff200" class="active-path" d="m86.327,356.157c0,-3.978 0.174,-7.936 0.483,-11.872c-20.829,-5.506 -39.285,-16.89 -53.457,-32.263c-20.453,18.272 -33.353,44.832 -33.353,74.352l0,125.626l86.327,0l0,-155.843z"/>
   <path id="svg_4" fill="#fff200" class="active-path" d="m149.026,232.868c-12.219,-19.667 -19.29,-42.83 -19.29,-67.615c0,-2.672 0.092,-5.322 0.254,-7.954c-4.764,-0.868 -9.663,-1.346 -14.674,-1.346c-44.852,0 -81.342,36.343 -81.342,81.013c0,36.655 24.576,67.684 58.173,77.647c9.226,-32.422 29.075,-61.396 56.879,-81.745z"/>
   <path id="svg_5" fill="#fff200" class="active-path" d="m258.996,264.092c-54.732,0 -99.26,-44.339 -99.26,-98.839s44.528,-98.839 99.26,-98.839c54.731,0 99.259,44.339 99.259,98.839s-44.527,98.839 -99.259,98.839z"/>
   <path id="svg_6" fill="#fff200" class="active-path" d="m350.296,256.369c-23.401,23.296 -55.692,37.723 -91.3,37.723s-67.899,-14.426 -91.301,-37.723c-31.08,22.287 -51.368,58.711 -51.368,99.788l0,155.843l285.337,0l0,-155.843c0,-41.077 -20.289,-77.501 -51.368,-99.788z"/>
  </g>
 </g>
</svg>