<svg width="1200" height="1500" xmlns="http://www.w3.org/2000/svg">

 <g>
  <title>background</title>
  <rect fill="#ffffff" id="canvas_background" height="1502" width="1202" y="-1" x="-1"/>
 </g>
 <g>
  <title>Layer 1</title>
  <g stroke="null" id="svg_1">
   <rect stroke="null" x="-135.96077" y="153.66144" id="svg_2" height="1208.52074" width="1467.48947" fill="#FFFFFF"/>
   <g stroke="null" id="svg_3">
    <g stroke="null" id="svg_4">
     <g stroke="null" id="svg_5">
      <g stroke="null" id="svg_6">
       <polygon stroke="null" id="svg_7" points="829.3019399642944,1166.40185546875 861.5867300033569,1152.935302734375 928.2281484603882,1152.935302734375 930.8178091049194,1166.40185546875 " fill="#7E4CC8"/>
       <polygon stroke="null" id="svg_8" points="886.1024160385132,1142.8355712890625 888.2604970932007,1115.9892578125 928.2281484603882,1115.9892578125 928.2281484603882,1152.935302734375 861.5867300033569,1152.935302734375 " fill="#FF7473"/>
      </g>
      <path stroke="null" id="svg_9" d="m887.74262,405.29273c0.43161,9.23655 -10.5314,16.05606 -10.27243,25.29261c0.17265,5.35202 4.1435,9.92713 5.35202,15.19283c2.07175,8.54597 -3.28027,17.86884 -0.25897,26.06952c2.58969,7.1648 11.3083,10.87669 18.73207,9.32287c7.42377,-1.55381 13.46637,-7.42377 16.74664,-14.3296c3.28027,-6.81951 4.22982,-14.58857 4.48879,-22.18499c0.25897,-7.59642 -0.08632,-15.19283 0.86323,-22.78925c1.20852,-9.58184 4.57511,-18.90472 4.92041,-28.48656c0.43161,-11.22198 -3.19395,-22.18499 -6.73319,-32.88903c-1.81278,-5.35202 -4.40247,-11.48095 -9.92713,-12.68947c-5.17937,-1.1222 -10.1861,3.0213 -12.68947,7.68274s-3.71189,10.09978 -6.56054,14.50225c-3.71189,5.69731 -10.27243,10.27243 -10.44507,17.09194c-0.43161,6.47422 5.43834,11.73992 5.78363,18.21413z" fill="#2A284F"/>
      <path stroke="null" id="svg_10" d="m889.64173,553.07755c-19.07736,19.16369 -42.38455,34.09755 -67.76348,43.24778c-10.27243,3.71189 -23.04822,6.0426 -31.07625,-1.46749c-6.3879,-5.95628 -6.81951,-15.71077 -6.81951,-24.42938c0.43161,-50.06729 7.25112,-101.3431 17.26458,-150.37451c-2.58969,-7.51009 -5.09305,-15.10651 -7.68274,-22.6166c-1.72646,-5.17937 -3.53924,-10.35875 -3.71189,-15.79709c-0.17265,-5.43834 1.38117,-11.22198 5.43834,-14.84754c5.35202,-4.92041 14.15696,-4.83408 20.28588,-0.94955s10.01346,10.70404 11.73992,17.78252s3.71189,14.84754 3.62556,22.09867c1.03587,-3.10762 2.07175,-6.3879 4.40247,-8.71861c2.33072,-2.33072 6.21525,-3.53924 8.97758,-1.72646c1.98543,1.29484 2.93498,3.79821 2.84866,6.21525s-1.03587,4.66144 -2.07175,6.73319c-4.1435,8.63229 -10.61772,15.88342 -18.30046,21.58073c-2.58969,39.36325 -5.61099,79.15811 -8.287,118.52136c29.86773,-19.5953 56.97312,-43.24778 80.45295,-70.18053c-2.93498,24.42938 -6.47422,50.41258 -9.32287,74.92829z" fill="#FF7473"/>
      <polygon stroke="null" id="svg_11" points="1053.3096914291382,735.2189331054688 1022.2336416244507,1115.9892578125 976.4825429916382,1115.9892578125 970.1810293197632,786.3220825195312 932.4578847885132,1115.9892578125 886.5340566635132,1115.9892578125 884.8939199447632,735.2189331054688 " fill="#3F3F75"/>
      <path stroke="null" id="svg_12" d="m876.43432,732.02494c55.93725,22.70293 119.98885,23.47983 176.87564,3.28027c6.21525,-21.32176 -3.53924,-43.85204 -15.02019,-62.75676c-11.48095,-18.99104 -25.37894,-37.55047 -28.40024,-59.56281c-2.76233,-19.76795 3.71189,-39.44957 7.1648,-59.04487c3.45292,-19.68162 4.74776,-47.30495 -11.65359,-58.61326c-11.22198,-7.76906 -23.91145,-15.96974 -35.13342,-23.7388l-69.83523,3.62556c-10.27243,13.38005 -20.28588,27.8823 -27.01907,43.3341s-9.49552,33.32064 -3.97085,49.20406c4.22982,12.25785 12.86211,22.35763 18.55943,34.01123c9.58184,19.50898 10.27243,42.47087 6.0426,63.87895c-4.22982,21.23544 -8.97758,46.3554 -17.60987,66.38232z" fill="#7E4CC8"/>
      <g stroke="null" id="svg_13">
       <polygon stroke="null" id="svg_14" points="915.7112417221069,712.4295654296875 1022.1473989486694,780.3657836914062 1053.3096914291382,703.4520874023438 972.3391103744507,651.8308715820312 " fill="#FFC36A"/>
       <path stroke="null" id="svg_15" d="m1053.30997,703.45206l0,0c-37.72311,17.43723 -80.88457,-10.09978 -80.97089,-51.6211l0,0l80.97089,51.6211z" fill="#F5AC5B"/>
      </g>
      <path stroke="null" id="svg_16" d="m1015.7595,574.7446c17.09194,12.4305 32.88903,26.7601 46.78702,42.38455c-20.37221,29.0045 -43.3341,57.31841 -69.48994,81.14354c-8.45965,-5.00673 -18.04149,-8.11435 -27.79598,-9.15023c-1.98543,-0.17265 -4.05718,0.17265 -5.78363,1.20852c-5.61099,3.45292 -2.67601,9.75449 1.64014,11.82624c3.36659,1.55381 7.42377,3.36659 11.04933,3.10762c-7.76906,5.00673 -13.89799,13.12108 -14.58857,22.35763s5.2657,18.99104 14.24328,20.97647c7.42377,1.64014 15.02019,-1.8991 21.32176,-6.21525c9.06391,-6.12893 13.38005,-17.43723 22.53028,-23.56615c29.7814,-20.02692 56.10989,-45.2332 77.34533,-74.15138c6.81951,-9.23655 13.29373,-19.42265 14.58857,-30.9036c1.29484,-11.39462 -2.93498,-22.78925 -9.23655,-32.37109c-6.3879,-9.49552 -14.84754,-17.43723 -23.22086,-25.20629c-22.53028,-20.89014 -46.26908,-39.36325 -68.79936,-60.33971c-3.71189,4.83408 -5.78363,9.32287 -8.20068,14.93386c-9.75449,22.87557 -2.33072,49.46303 17.60987,63.96528z" fill="#FF7473"/>
      <g stroke="null" id="svg_17">
       <path stroke="null" id="svg_18" d="m929.26394,455.27369c-4.74776,3.45292 -10.27243,5.86996 -16.05606,6.99216c2.84866,-5.69731 4.1435,-12.25785 3.28027,-18.30046c9.4092,0 19.16369,-3.45292 27.01907,-8.71861c-2.41704,8.11435 -7.51009,15.02019 -14.24328,20.02692z" fill="#DB4550"/>
       <path stroke="null" id="svg_19" d="m913.20788,462.26585c5.78363,-1.1222 11.3083,-3.53924 16.05606,-6.99216c6.73319,-5.00673 11.82624,-11.91256 14.3296,-19.94059c-7.85538,5.2657 -17.60987,8.63229 -27.01907,8.71861c-8.71861,0.25897 -16.22871,-7.07848 -19.07736,-15.27916c-2.84866,-8.287 -2.07175,-17.26458 -1.29484,-25.9832c1.20852,-13.12108 2.76233,-27.27804 11.56727,-37.20517c6.99216,-7.94171 18.30046,-11.91256 28.74553,-10.09978c10.44507,1.81278 19.76795,9.23655 23.7388,19.07736c4.31615,10.61772 2.07175,25.11997 -0.94955,36.1693c-3.0213,11.04933 -7.07848,22.18499 -6.47422,33.66594c0.60426,11.48095 6.30157,24.68835 17.43723,27.10539c-7.25112,13.98431 -21.40808,24.08409 -37.03253,26.24216c-7.42377,1.03587 -15.36548,0.34529 -21.8397,-3.53924c-6.47422,-3.79821 -11.65359,-11.65359 -11.04933,-19.16369c5.52467,-2.33072 10.01346,-7.07848 12.86211,-12.77579z" fill="#FF7473"/>
      </g>
      <path stroke="null" id="svg_20" d="m997.54537,457.51809c1.81278,-5.2657 -1.20852,-10.87669 -4.57511,-15.36548c-3.36659,-4.48879 -7.25112,-8.97758 -7.68274,-14.50225c-0.43161,-5.78363 3.19395,-10.96301 6.3879,-15.79709s6.12893,-10.70404 4.40247,-16.22871c-2.15807,-6.81951 -10.35875,-9.66817 -14.67489,-15.36548c-3.88453,-5.09305 -4.40247,-11.91256 -5.2657,-18.30046c-0.86323,-6.3879 -2.67601,-13.29373 -7.94171,-16.91929c-4.22982,-2.84866 -9.75449,-2.93498 -14.84754,-2.33072s-10.1861,1.72646 -15.27916,0.94955c-5.2657,-0.86323 -10.70404,-3.79821 -15.71077,-1.8991c-4.83408,1.81278 -6.99216,7.33745 -8.63229,12.17153c-1.46749,4.57511 -3.0213,9.23655 -2.76233,13.98431s2.84866,9.75449 7.33745,11.39462c2.84866,1.1222 6.0426,0.69058 9.06391,0.86323s6.47422,1.1222 7.85538,3.88453c2.41704,4.66144 -2.50336,10.70404 -0.17265,15.36548c1.64014,3.19395 5.86996,4.1435 8.11435,6.90583c2.2444,2.76233 2.07175,6.73319 1.29484,10.1861s-2.15807,6.81951 -1.98543,10.35875c0.25897,5.00673 3.45292,9.32287 4.74776,14.07063c1.81278,6.56054 0.08632,13.46637 -1.29484,20.19956c-1.38117,6.64686 -2.33072,13.98431 0.94955,19.94059c2.41704,4.57511 7.1648,7.76906 12.34418,8.37332c5.09305,0.60426 10.5314,-1.55381 13.89799,-5.43834c3.19395,-3.71189 4.57511,-8.63229 7.85538,-12.25785c5.00673,-5.43834 14.15696,-7.25112 16.574,-14.24328z" fill="#3F3F75"/>
      <g stroke="null" id="svg_21">
       <polygon stroke="null" id="svg_22" points="921.6674795150757,1166.40185546875 954.0385732650757,1152.935302734375 1020.5935659408569,1152.935302734375 1023.2695302963257,1166.40185546875 " fill="#7E4CC8"/>
       <polygon stroke="null" id="svg_23" points="978.4680166244507,1142.8355712890625 980.6260976791382,1115.9892578125 1020.5935659408569,1115.9892578125 1020.5935659408569,1152.935302734375 954.0385732650757,1152.935302734375 " fill="#FF7473"/>
      </g>
     </g>
     <g stroke="null" id="svg_24">
      <path stroke="null" id="svg_25" d="m607.79743,586.82981c9.84081,98.23547 0,201.73664 0,201.73664c0.69058,5.00673 2.58969,10.79036 3.28027,15.79709c1.29484,9.58184 2.58969,19.5953 -0.51794,28.83185s-12.08521,17.17826 -21.66705,15.79709c-7.51009,-1.1222 -13.46637,-7.76906 -15.27916,-15.10651c-1.81278,-7.42377 -0.25897,-15.27916 2.76233,-22.27131c-0.51794,3.53924 -4.31615,5.69731 -7.94171,5.78363c-3.62556,0.08632 -7.07848,-2.67601 -7.76906,-6.21525c-0.86323,-4.40247 2.2444,-8.63229 5.52467,-11.82624c4.74776,-4.57511 10.1861,-8.37332 16.14238,-11.22198c3.19395,-70.87111 -15.88342,-201.13238 -15.88342,-201.13238l41.34867,0l0,-0.17265z" fill="#FFC36A"/>
      <path stroke="null" id="svg_26" d="m576.63486,463.73334c31.16257,34.52916 41.00338,101.51574 39.96751,123.09647l-50.23993,0l10.27243,-123.09647z" fill="#5F8D99"/>
      <polygon stroke="null" id="svg_27" points="388.6235647201538,708.6314697265625 383.7031545639038,1110.6373291015625 445.5967092514038,1110.6373291015625 480.98910427093506,783.9913330078125 493.76486110687256,1110.6373291015625 552.8097524642944,1110.6373291015625 566.3624258041382,713.8971557617188 " fill="#3F3F75"/>
      <path stroke="null" id="svg_28" d="m566.36243,713.89713c7.33745,-8.20068 8.54597,-20.02692 9.4092,-30.9036c3.19395,-41.86661 5.61099,-83.81955 7.1648,-125.77248c1.20852,-31.42154 1.81278,-63.10205 -6.30157,-93.48771c-23.82512,-14.67489 -49.63567,-27.53701 -77.51797,-30.21302c-25.6379,-2.50336 -51.53478,3.97085 -75.10093,14.50225c-23.56615,10.5314 -28.22759,13.72534 -49.63567,28.14127c26.06952,54.21079 13.29373,202.51355 9.23655,228.3241c-0.77691,4.74776 -1.64014,9.58184 -0.60426,14.24328c1.03587,4.66144 4.40247,9.15023 9.15023,9.92713c78.55385,-10.87669 116.7949,-18.90472 174.19963,-14.76122z" fill="#7FA3B0"/>
      <g stroke="null" id="svg_29">
       <path stroke="null" id="svg_30" d="m490.05298,404.17053c-6.3879,4.22982 -14.67489,6.73319 -22.44396,6.73319c0.25897,3.79821 -0.25897,7.94171 -1.46749,11.73992c10.5314,-1.20852 20.02692,-8.63229 23.91145,-18.4731z" fill="#E5901F"/>
       <path stroke="null" id="svg_31" d="m498.25365,427.21875c-4.05718,-11.04933 -0.77691,-23.39351 3.19395,-34.52916c3.97085,-11.13566 8.63229,-22.6166 7.1648,-34.35652c-1.20852,-9.66817 -6.73319,-18.64575 -14.84754,-23.99777c-8.11435,-5.35202 -17.95517,-6.47422 -27.27804,-3.71189c-9.92713,2.84866 -17.17826,11.82624 -20.37221,21.58073c-3.19395,9.75449 -2.93498,20.37221 -2.07175,30.64463c0.60426,6.99216 1.64014,14.3296 5.52467,20.19956c3.88453,5.86996 11.3083,10.01346 18.04149,7.85538c7.68274,0 15.96974,-2.50336 22.44396,-6.73319c-3.88453,9.84081 -13.38005,17.26458 -23.82512,18.4731c-0.86323,2.76233 -1.98543,5.43834 -3.53924,7.76906c-3.53924,5.61099 -8.89126,10.01346 -15.02019,12.4305c7.33745,12.51682 21.4944,20.37221 35.99665,20.11324c14.50225,-0.25897 28.57288,-8.80494 35.47872,-21.58073c-7.94171,-1.46749 -18.04149,-6.47422 -20.89014,-14.15696z" fill="#FFC36A"/>
      </g>
      <path stroke="null" id="svg_32" d="m498.77159,400.63129c-1.8991,-3.36659 -2.67601,-7.68274 -2.07175,-11.48095c4.83408,-2.33072 7.85538,-7.85538 7.42377,-13.20741c-0.17265,-1.8991 -0.94955,-3.97085 -2.67601,-4.66144c-1.81278,-0.69058 -3.88453,0.51794 -4.92041,2.15807c-1.03587,1.64014 -1.29484,3.97085 -1.46749,5.95628c-0.77691,-0.43161 -1.20852,-1.20852 -1.46749,-2.07175c-0.25897,-0.86323 -0.25897,-1.72646 -0.25897,-2.58969c0,-2.76233 0.51794,-5.61099 1.1222,-8.287c-8.80494,-5.17937 -14.24328,-14.24328 -15.36548,-24.34306c-11.39462,11.22198 -26.7601,18.38678 -42.72984,19.85427c-0.17265,-8.80494 0.08632,-18.38678 3.71189,-26.41481c4.57511,-10.1861 14.50225,-17.78252 25.55158,-19.50898c6.81951,-1.03587 14.15696,0.17265 19.42265,4.57511c8.71861,-3.62556 19.07736,0.08632 25.55158,6.90583c6.47422,6.81951 9.32287,16.40135 9.75449,25.81055c0.94955,18.04149 -7.76906,35.82401 -21.58073,47.30495z" fill="#2A284F"/>
      <path stroke="null" id="svg_33" d="m374.4666,476.07751c-36.77356,32.45741 -39.96751,122.40589 -39.96751,122.40589l70.78479,0c0.08632,0 4.22982,-122.40589 -30.81728,-122.40589z" fill="#5F8D99"/>
      <polygon stroke="null" id="svg_34" points="510.77047634124756,673.2390747070312 474.34225368499756,673.2390747070312 465.9688711166382,586.8297729492188 519.1437978744507,586.8297729492188 " fill="#FFFFFF"/>
      <path stroke="null" id="svg_35" d="m343.39035,598.4834c-3.0213,17.00561 -2.67601,34.96078 -1.03587,52.13904c0.86323,8.45965 2.41704,17.3509 7.76906,23.91145c5.95628,7.25112 15.62445,10.44507 24.94732,10.70404c9.32287,0.17265 18.4731,-2.2444 27.53701,-4.74776c23.7388,-6.47422 47.4776,-12.94844 71.30272,-19.42265c4.74776,-1.29484 11.22198,0.86323 16.14238,0.51794c4.92041,-0.34529 9.92713,-2.33072 12.77579,-6.3879c3.45292,-4.92041 2.93498,-11.48095 2.2444,-17.43723c-0.51794,-4.66144 -1.03587,-9.4092 -3.0213,-13.63902c-1.98543,-4.22982 -5.61099,-8.02803 -10.1861,-8.80494c-5.17937,-0.94955 -10.1861,1.8991 -14.67489,4.57511c-1.81278,1.1222 -4.66144,1.38117 -6.64686,2.2444c-0.51794,-3.10762 -1.64014,-5.78363 -2.07175,-8.89126c-5.86996,6.21525 -10.01346,14.50225 -10.70404,23.04822c-20.11324,9.23655 -42.2119,14.50225 -64.39689,14.24328c-2.93498,-16.05606 -1.29484,-35.91033 0.51794,-52.05271l-50.4989,0z" fill="#FFC36A"/>
      <g stroke="null" id="svg_36">
       <polygon stroke="null" id="svg_37" points="438.25924587249756,1124.9669189453125 438.25924587249756,1110.6373291015625 388.4509267807007,1110.6373291015625 388.4509267807007,1156.5611572265625 485.73690700531006,1156.5611572265625 " fill="#2A284F"/>
       <polygon stroke="null" id="svg_38" points="388.4509267807007,1156.5611572265625 388.4509267807007,1166.40185546875 500.4980764389038,1166.40185546875 485.73690700531006,1156.5611572265625 " fill="#FFC15F"/>
      </g>
      <g stroke="null" id="svg_39">
       <polygon stroke="null" id="svg_40" points="550.3063955307007,1124.9669189453125 550.3063955307007,1110.6373291015625 500.4980764389038,1110.6373291015625 500.4980764389038,1156.5611572265625 597.7839956283569,1156.5611572265625 " fill="#2A284F"/>
       <polygon stroke="null" id="svg_41" points="500.4980764389038,1156.5611572265625 500.4980764389038,1166.40185546875 612.5451040267944,1166.40185546875 597.7839956283569,1156.5611572265625 " fill="#FFC15F"/>
      </g>
     </g>
     <g stroke="null" id="svg_42">
      <g stroke="null" id="svg_43">
       <polygon stroke="null" id="svg_44" points="650.6135854721069,1134.6348876953125 702.5799551010132,1134.6348876953125 702.5799551010132,1115.2987060546875 648.9733877182007,1115.2987060546875 " fill="#5F8D99"/>
       <polygon stroke="null" id="svg_45" points="742.0295400619507,1115.2987060546875 744.5329580307007,1134.6348876953125 798.0530996322632,1134.6348876953125 797.4488515853882,1115.2987060546875 " fill="#5F8D99"/>
       <polygon stroke="null" id="svg_46" points="787.2626943588257,755.7637329101562 619.3646230697632,763.2738647460938 648.9733877182007,1115.2987060546875 702.5799551010132,1115.2987060546875 702.5799551010132,802.3781127929688 742.0295400619507,1115.2987060546875 797.4488515853882,1115.2987060546875 " fill="#7FA3B0"/>
       <polygon stroke="null" id="svg_47" points="786.2269277572632,718.9901733398438 616.8612661361694,733.492431640625 619.3646230697632,763.2738647460938 787.2626943588257,755.7637329101562 " fill="#5F8D99"/>
      </g>
      <path stroke="null" id="svg_48" d="m616.86133,486.34994c-13.98431,17.52355 -22.27131,39.1906 -26.58746,61.28927c-4.57511,23.39351 -5.09305,47.30495 -5.43834,71.13008c-21.66705,14.84754 -46.87334,25.03364 -72.94286,27.53701c-5.95628,0.60426 -11.39462,3.53924 -14.93386,8.37332c-0.08632,0.08632 -0.08632,0.17265 -0.17265,0.17265c-3.28027,4.48879 -4.57511,10.1861 -3.62556,15.62445c1.03587,6.0426 2.15807,12.08521 3.19395,18.12781c0.77691,4.57511 3.10762,8.71861 6.56054,11.82624c2.67601,2.41704 5.43834,4.92041 8.20068,7.33745c5.17937,4.66144 12.34418,6.3879 19.07736,4.57511c25.03364,-6.81951 48.42715,-17.09194 70.61214,-30.9036c2.15807,-37.80943 2.67601,-75.87784 4.74776,-113.68727c1.55381,-27.36436 3.28027,-55.24666 11.3083,-81.4025z" fill="#3F3F75"/>
      <path stroke="null" id="svg_49" d="m855.6305,620.92736c-1.98543,-15.02019 -12.08521,-27.62333 -17.52355,-41.78029c-11.3083,-29.69508 -1.72646,-65.60541 -18.21413,-92.71081c-3.53924,-5.78363 -8.11435,-10.79036 -13.29373,-15.02019c-18.21413,14.93386 -29.0045,39.01796 -27.19172,62.58411c1.03587,13.72534 5.86996,26.7601 10.61772,39.70854c4.74776,12.86211 8.80494,26.7601 13.5527,39.62222c-6.30157,5.95628 -15.79709,7.1648 -24.34306,6.30157c-8.63229,-0.86323 -17.00561,-3.45292 -25.72423,-3.71189c-8.63229,-0.34529 -18.12781,2.15807 -23.22086,9.15023c-4.83408,6.64686 -4.57511,15.62445 -4.05718,23.82512c0.43161,7.42377 1.20852,15.62445 6.3879,20.89014c6.30157,6.3879 16.48768,6.21525 25.46526,5.61099c15.27916,-1.03587 30.47199,-3.28027 45.75114,-4.40247c14.58857,0 26.41481,-5.00673 37.03253,-13.5527c10.79036,-8.63229 16.574,-22.96189 14.76122,-36.51459z" fill="#3F3F75"/>
      <path stroke="null" id="svg_50" d="m732.70668,669.6998c-5.2657,-5.35202 -5.95628,-13.46637 -6.3879,-20.89014c-0.51794,-8.20068 -0.77691,-17.17826 4.05718,-23.82512c5.09305,-6.99216 14.50225,-9.49552 23.22086,-9.15023c8.63229,0.34529 17.09194,2.93498 25.72423,3.71189c8.63229,0.86323 18.12781,-0.34529 24.34306,-6.30157c-4.74776,-12.86211 -8.80494,-26.7601 -13.5527,-39.62222c-4.74776,-12.86211 -9.58184,-25.9832 -10.61772,-39.70854c-1.72646,-23.56615 8.97758,-47.65025 27.19172,-62.58411c-7.94171,-6.47422 -17.43723,-11.3083 -27.19172,-14.50225c-16.22871,-5.35202 -34.18387,-9.15023 -51.01684,-11.91256c-23.82512,-3.88453 -46.70069,7.25112 -46.70069,7.25112c-23.82512,0.17265 -46.70069,13.03476 -62.23882,31.07625c-0.86323,1.03587 -1.72646,2.07175 -2.58969,3.10762c-8.02803,26.06952 -9.75449,54.03814 -11.22198,81.48883c-2.15807,37.80943 -2.67601,75.87784 -4.74776,113.68727c-2.41704,10.87669 -2.93498,24.08409 -1.64014,35.21975c1.20852,11.13566 6.81951,22.35763 16.74664,27.45069c7.33745,3.79821 15.96974,3.79821 24.17041,3.71189c38.15473,-0.34529 76.30945,-0.69058 114.46418,-1.03587c11.65359,-0.08632 23.7388,-0.34529 34.18387,-5.43834c11.13566,-5.43834 18.04149,-20.02692 15.19283,-32.11212c-2.76233,-11.82624 -3.97085,-27.70965 0,-38.50002c-15.27916,1.03587 -30.47199,3.28027 -45.75114,4.40247c-9.15023,0.77691 -19.33633,0.94955 -25.6379,-5.52467z" fill="#2A284F"/>
      <g stroke="null" id="svg_51">
       <path stroke="null" id="svg_52" d="m712.59344,421.17614c-11.39462,5.17937 -24.68835,5.78363 -36.51459,1.98543c2.50336,2.58969 5.43834,4.83408 7.51009,7.85538c1.55381,2.33072 2.50336,5.09305 2.67601,7.85538c2.93498,-0.60426 5.86996,-1.46749 8.63229,-2.67601c7.25112,-3.0213 13.20741,-8.63229 17.6962,-15.02019z" fill="#E5901F"/>
       <path stroke="null" id="svg_53" d="m735.21004,384.22994c0.86323,-13.98431 -4.1435,-32.28477 -16.74664,-38.50002c-7.33745,-3.62556 -15.96974,-4.40247 -23.91145,-2.2444c-7.85538,2.15807 -14.93386,7.33745 -19.33633,14.15696c-7.42377,11.48095 -7.25112,26.15584 -6.73319,39.79486c0.25897,8.287 0.77691,17.17826 5.86996,23.7388c0.51794,0.69058 1.1222,1.29484 1.72646,1.98543c11.82624,3.79821 25.11997,3.19395 36.51459,-1.98543c-4.48879,6.3879 -10.44507,11.99888 -17.60987,15.10651c-2.76233,1.20852 -5.69731,2.07175 -8.63229,2.67601c0.34529,4.83408 -1.20852,9.84081 -4.66144,13.29373c3.19395,6.73319 6.90583,13.63902 10.1861,20.37221c10.09978,-11.56727 22.6166,-21.06279 36.51459,-27.62333c-4.83408,-9.06391 -3.36659,-20.89014 -0.69058,-30.81728c2.76233,-10.01346 6.81951,-19.68162 7.51009,-29.95405z" fill="#FFC36A"/>
      </g>
      <polygon stroke="null" id="svg_54" points="705.4287099838257,682.4755249023438 669.0866689682007,682.4755249023438 660.6270742416382,596.0663452148438 713.8019399642944,596.0663452148438 " fill="#FFFFFF"/>
      <path stroke="null" id="svg_55" d="m712.0755,614.36681l-1.46749,14.76122c-3.62556,2.84866 -9.49552,2.41704 -13.98431,1.29484c-4.48879,-1.1222 -8.97758,-2.93498 -13.5527,-2.76233c-7.07848,0.17265 -13.63902,5.35202 -16.05606,11.99888c-2.41704,6.64686 -0.94955,14.50225 3.19395,20.19956c4.22982,5.69731 10.87669,9.4092 17.86884,10.61772c6.99216,1.20852 14.24328,0 20.89014,-2.67601c4.40247,-1.81278 8.63229,-4.31615 13.12108,-5.95628c4.48879,-1.64014 9.58184,-2.50336 14.07063,-0.77691c3.97085,-3.19395 7.07848,-8.02803 8.02803,-13.03476c0.94955,-5.00673 0.08632,-10.35875 -2.41704,-14.76122c-4.48879,2.76233 -11.13566,1.98543 -15.19283,-1.38117c-2.93498,-2.41704 -4.57511,-6.0426 -6.47422,-9.32287s-4.22982,-8.20068 -8.02803,-8.20068z" fill="#FFC36A"/>
      <path stroke="null" id="svg_56" d="m512.41061,695.16506c4.92041,-4.22982 7.33745,-11.13566 6.12893,-17.52355s-5.86996,-11.91256 -11.91256,-14.15696c-3.53924,3.79821 -9.15023,5.09305 -14.24328,4.1435c-5.09305,-0.94955 -9.75449,-3.45292 -14.50225,-5.69731s-9.66817,-4.31615 -14.84754,-4.22982c-1.8991,0 -3.79821,0.34529 -5.35202,1.38117s-2.67601,2.84866 -2.50336,4.74776c0.25897,3.0213 3.62556,4.74776 6.47422,5.86996c3.71189,1.46749 6.12893,0.94955 9.84081,2.41704c-7.33745,1.98543 -13.5527,6.47422 -19.50898,11.3083c-5.95628,4.74776 -10.35875,11.99888 -10.09978,19.68162c0.25897,7.59642 6.0426,15.19283 13.63902,15.88342c5.61099,0.51794 10.96301,-2.50336 15.19283,-6.21525c4.22982,-3.71189 7.68274,-8.20068 12.08521,-11.73992c7.94171,-6.30157 19.68162,-7.85538 29.60876,-5.86996z" fill="#FFC36A"/>
      <path stroke="null" id="svg_57" d="m671.24476,355.91602c5.17937,5.52467 15.62445,9.58184 23.13454,9.06391c6.73319,-0.43161 13.46637,-1.81278 20.02692,-0.43161c0.08632,2.93498 0.51794,5.78363 0.60426,8.71861c0.08632,1.81278 0.08632,3.62556 0.86323,5.2657s2.41704,2.93498 4.22982,2.76233c-1.98543,3.71189 -1.64014,8.71861 -0.08632,12.60314c0.43161,-1.64014 1.29484,-3.36659 2.2444,-4.74776c1.46749,-2.07175 4.31615,-3.45292 6.81951,-1.20852c0.60426,0.51794 1.1222,1.29484 1.38117,1.98543c0.94955,2.41704 0.25897,5.00673 -0.51794,7.42377c-0.69058,1.98543 -1.55381,3.97085 -3.0213,5.43834c-1.55381,1.46749 -3.88453,2.15807 -5.78363,1.1222c1.03587,1.55381 1.8991,3.28027 2.76233,5.00673c1.46749,3.0213 5.61099,3.62556 7.76906,1.03587c8.89126,-10.35875 17.26458,-21.58073 19.68162,-34.87446c0.94955,-5.00673 0.94955,-10.35875 -0.86323,-15.19283s-5.52467,-9.06391 -10.35875,-10.61772c-1.72646,-7.51009 -7.07848,-14.15696 -13.29373,-18.64575c-6.21525,-4.48879 -14.07063,-6.73319 -21.66705,-6.0426c-5.86996,0.51794 -11.48095,2.58969 -17.3509,2.67601c-3.88453,0.08632 -7.68274,-0.77691 -11.56727,-1.29484c-3.88453,-0.51794 -7.85538,-0.77691 -11.48095,0.43161c-3.71189,1.20852 -6.99216,4.1435 -7.76906,7.94171c-0.51794,2.76233 0.34529,5.69731 1.8991,8.02803c1.46749,2.41704 3.53924,4.40247 5.61099,6.30157c2.2444,2.41704 4.48879,4.83408 6.73319,7.25112z" fill="#E75459"/>
      <polygon stroke="null" id="svg_58" points="650.6135854721069,1134.6348876953125 592.2592153549194,1166.40185546875 707.4141225814819,1166.40185546875 702.5799551010132,1134.6348876953125 " fill="#2A284F"/>
      <polygon stroke="null" id="svg_59" points="744.5329580307007,1134.6348876953125 687.9051504135132,1166.40185546875 803.1461782455444,1166.40185546875 798.0530996322632,1134.6348876953125 " fill="#3F3F75"/>
     </g>
     <g stroke="null" id="svg_60">
      <g stroke="null" id="svg_61">
       <path stroke="null" id="svg_62" d="m312.48675,863.84003l6.81951,-53.5202l-60.94397,-4.92041l-1.72646,53.43388c3.88453,0.86323 7.76906,1.72646 11.56727,2.58969c14.3296,3.53924 29.7814,4.92041 44.28365,2.41704z" fill="#DB4550"/>
       <path stroke="null" id="svg_63" d="m312.48675,863.84003c-14.50225,2.50336 -29.95405,1.1222 -44.28365,-2.41704c-3.79821,-0.77691 -7.68274,-1.64014 -11.56727,-2.58969l-9.06391,275.8017l-3.19395,17.6962l68.71304,0l-35.0471,-17.6962l34.44284,-270.79497z" fill="#FF7473"/>
       <polygon stroke="null" id="svg_64" points="313.0910634994507,1152.331298828125 244.37798976898193,1152.331298828125 243.94637966156006,1154.6619873046875 267.2535696029663,1166.40185546875 340.97332668304443,1166.40185546875 " fill="#2A284F"/>
       <polygon stroke="null" id="svg_65" points="239.3712453842163,1152.331298828125 170.83087062835693,1152.331298828125 168.50016689300537,1166.40185546875 241.87463283538818,1166.40185546875 267.2535696029663,1166.40185546875 243.94637966156006,1154.6619873046875 " fill="#3F3F75"/>
       <path stroke="null" id="svg_66" d="m173.85216,782.69649l0,68.28142c19.76795,-4.48879 40.74441,-1.46749 61.72088,3.0213l6.30157,-56.54151l-68.02245,-14.76122z" fill="#DB4550"/>
       <path stroke="null" id="svg_67" d="m173.85216,851.06423l0,283.57076l-3.0213,17.6962l68.54039,0l-35.0471,-17.6962l31.24889,-280.63578c-20.97647,-4.48879 -41.95293,-7.42377 -61.72088,-2.93498z" fill="#FF7473"/>
      </g>
      <polygon stroke="null" id="svg_68" points="467.17742824554443,605.8208618164062 430.8354787826538,605.8208618164062 422.4621572494507,519.4115600585938 475.6370840072632,519.4115600585938 " fill="#FFFFFF"/>
      <path stroke="null" id="svg_69" d="m414.52043,590.71434c-20.19956,12.94844 -42.29823,22.78925 -65.34644,29.09082c-7.76906,2.15807 -16.574,3.71189 -23.47983,-0.43161c-7.25112,-4.40247 -9.66817,-13.5527 -11.48095,-21.8397c-4.66144,-21.23544 -8.287,-42.98881 -12.94844,-64.22425c4.83408,-2.58969 7.25112,-8.20068 7.76906,-13.63902c0.51794,-5.43834 -0.69058,-10.87669 -1.20852,-16.31503c-1.8991,-19.94059 5.43834,-38.93163 18.55943,-54.03814c11.82624,38.84531 17.3509,81.14354 13.81167,121.62898c-0.51794,5.86996 -0.77691,12.86211 3.88453,16.574c4.40247,3.45292 10.70404,2.07175 16.05606,0.43161c18.90472,-5.61099 37.89576,-11.22198 56.80047,-16.83297c0.08632,-1.98543 0.77691,-3.88453 1.72646,-5.69731c1.64014,-3.10762 4.48879,-5.35202 7.33745,-7.51009c3.88453,-3.0213 7.68274,-6.0426 11.56727,-9.06391c1.72646,-1.29484 3.62556,-2.76233 5.78363,-2.50336c2.58969,0.25897 4.48879,2.84866 4.40247,5.43834c0,2.58969 -1.64014,4.92041 -3.62556,6.47422c-1.98543,1.55381 -4.48879,2.50336 -6.81951,3.45292c3.79821,5.78363 2.84866,15.02019 -1.98543,19.94059c-2.76233,2.76233 -6.47422,4.31615 -10.09978,5.86996c-3.28027,1.29484 -7.76906,1.29484 -10.70404,3.19395z" fill="#FF7473"/>
      <path stroke="null" id="svg_70" d="m281.66947,336.2344c7.85538,-1.72646 15.96974,5.09305 18.55943,12.68947c2.58969,7.68274 1.46749,16.05606 0.43161,24.08409c-3.19395,26.67378 -3.88453,53.69285 -2.07175,80.53928c-11.3083,-5.2657 -23.7388,-8.287 -36.08298,-10.1861c-0.60426,-10.1861 -2.50336,-20.11324 -3.0213,-30.29934c-0.60426,-12.4305 -1.20852,-24.94732 1.38117,-37.11885c3.19395,-14.50225 9.92713,-29.52244 20.80382,-39.70854z" fill="#6A3EB8"/>
      <path stroke="null" id="svg_71" d="m329.83765,831.38261c-14.58857,10.70404 -33.9249,12.4305 -51.88007,10.1861c-17.86884,-2.2444 -35.13342,-8.11435 -52.91594,-11.39462c-21.14911,-3.88453 -45.83747,-4.83408 -66.98658,-1.1222c8.45965,-57.49106 -18.55943,-118.52136 1.55381,-172.99111c8.63229,-23.39351 25.20629,-43.16146 34.01123,-66.46864c14.67489,-39.01796 5.43834,-89.08524 -24.51571,-118.17606c13.89799,-16.91929 33.9249,-30.21302 54.21079,-38.4137l33.66594,5.2657l33.66594,-10.96301c11.39462,7.59642 24.17041,14.41593 35.56504,22.01234c-6.81951,9.49552 -5.35202,24.08409 -2.2444,35.39239c3.10762,11.3083 7.85538,22.44396 7.33745,34.18387c-1.29484,29.86773 -34.96078,48.5998 -42.47087,77.51797c-5.78363,22.27131 5.09305,44.97424 13.46637,66.38232c20.63118,51.96639 34.44284,113.08301 27.53701,168.58864z" fill="#FFC15F"/>
      <g stroke="null" id="svg_72">
       <path stroke="null" id="svg_73" d="m251.80174,400.45864c4.83408,7.33745 12.34418,12.34418 20.7175,14.3296c-0.17265,-1.29484 -0.08632,-2.58969 0.25897,-3.79821c1.29484,-5.09305 6.21525,-8.02803 10.09978,-11.65359c-10.01346,3.0213 -20.89014,3.45292 -31.07625,1.1222z" fill="#DB4550"/>
       <path stroke="null" id="svg_74" d="m272.51924,414.87457c-8.37332,-2.07175 -15.96974,-7.07848 -20.7175,-14.3296c10.27243,2.33072 21.06279,1.81278 31.07625,-1.1222c0.94955,-0.86323 1.81278,-1.81278 2.58969,-2.84866c3.62556,-4.83408 4.05718,-11.3083 4.31615,-17.3509c0.34529,-6.99216 0.69058,-14.07063 -1.29484,-20.80382c-1.98543,-6.73319 -6.64686,-13.03476 -13.29373,-14.93386c-13.12108,-3.88453 -27.79598,8.89126 -31.76683,22.01234c-2.50336,8.287 -1.55381,17.26458 -0.51794,25.89687c1.03587,8.63229 1.98543,17.60987 -0.51794,25.89687c-2.58969,8.287 -10.5314,13.29373 -18.99104,15.79709c5.35202,14.41593 20.89014,24.42938 36.25562,23.30719c15.36548,-1.1222 28.05495,-13.89799 31.16257,-29.0045c-3.62556,-1.55381 -8.71861,-1.72646 -13.03476,-4.05718c-3.0213,-1.81278 -4.83408,-5.09305 -5.2657,-8.45965z" fill="#FF7473"/>
      </g>
      <path stroke="null" id="svg_75" d="m279.5114,350.04606c-4.05718,13.03476 -16.14238,23.13454 -29.60876,24.77468c-1.20852,12.08521 -2.33072,24.25674 -3.53924,36.42827c-1.1222,11.65359 -2.33072,23.39351 -1.29484,35.0471c0.43161,4.92041 1.20852,9.75449 1.03587,14.67489c-0.17265,4.92041 -1.38117,9.92713 -4.48879,13.72534c-3.10762,3.79821 -8.45965,5.86996 -13.12108,4.31615c3.97085,-13.63902 -2.93498,-31.59419 -10.5314,-43.50675c1.20852,-17.09194 3.10762,-34.70181 4.31615,-51.88007c0.77691,-10.5314 1.55381,-21.32176 6.30157,-30.73096c6.56054,-12.94844 20.63118,-21.66705 35.13342,-21.75337c6.30157,0 12.77579,1.55381 17.95517,5.2657c0.94955,4.74776 -0.69058,8.89126 -2.15807,13.63902z" fill="#7E4CC8"/>
      <path stroke="null" id="svg_76" d="m196.38244,514.92282c-25.6379,19.25001 -51.53478,38.58634 -73.4608,61.89353c16.05606,11.65359 32.71638,24.94732 48.77244,36.60091c5.52467,-6.30157 12.94844,-11.13566 21.14911,-12.77579c8.20068,-1.64014 17.26458,0.08632 23.7388,5.35202c6.47422,5.35202 9.92713,14.3296 7.94171,22.44396c-1.1222,4.31615 -4.05718,8.45965 -8.45965,9.32287c-3.45292,0.60426 -6.90583,-0.94955 -10.44507,-1.46749c-5.52467,-0.77691 -11.04933,1.20852 -16.22871,3.19395c-0.86323,0.34529 -1.72646,0.60426 -2.58969,0.86323c-9.84081,2.84866 -20.45853,1.38117 -29.52244,-3.45292c-11.99888,-6.47422 -23.91145,-12.94844 -35.91033,-19.42265c-7.51009,-4.05718 -15.10651,-8.20068 -21.40808,-13.89799s-11.3083,-13.29373 -12.34418,-21.75337c-1.64014,-14.67489 8.71861,-27.70965 18.4731,-38.84531c20.63118,-23.56615 42.2119,-47.90922 62.9294,-71.47537c9.58184,2.15807 18.12781,7.33745 23.39351,15.53812c5.52467,8.11435 5.86996,18.21413 3.97085,27.8823z" fill="#FF7473"/>
      <path stroke="null" id="svg_77" d="m478.14041,556.96208c0.43161,-1.72646 0.86323,-3.53924 0.77691,-5.35202c-0.08632,-1.81278 -0.69058,-3.71189 -1.98543,-4.92041c-2.50336,-2.33072 -6.90583,-1.55381 -9.32287,0.86323c-2.50336,2.41704 -3.53924,5.86996 -4.22982,9.23655c-0.77691,3.62556 -1.20852,7.25112 -1.38117,10.87669c-0.08632,2.15807 -0.08632,4.40247 0.77691,6.30157c0.86323,1.98543 2.84866,3.53924 5.00673,3.36659c2.84866,-0.25897 4.57511,-3.28027 5.69731,-5.95628c1.81278,-4.66144 3.36659,-9.49552 4.66144,-14.41593z" fill="#FF7473"/>
     </g>
    </g>
    <g stroke="null" id="svg_78">
     <path stroke="null" id="svg_79" d="m968.36822,1188.84578l-22.70293,0c-3.10762,0 -5.61099,2.50336 -5.61099,5.61099c0,3.10762 2.50336,5.61099 5.61099,5.61099l22.70293,0c3.10762,0 5.61099,-2.50336 5.61099,-5.61099c0,-3.10762 -2.50336,-5.61099 -5.61099,-5.61099z" fill="#2A284F"/>
     <path stroke="null" id="svg_80" d="m129.30953,1188.84578l-18.30046,0c-3.10762,0 -5.61099,2.50336 -5.61099,5.61099c0,3.10762 2.50336,5.61099 5.61099,5.61099l18.30046,0c3.10762,0 5.61099,-2.50336 5.61099,-5.61099c0,-3.10762 -2.50336,-5.61099 -5.61099,-5.61099z" fill="#2A284F"/>
     <path stroke="null" id="svg_81" d="m92.88127,1166.40183l-18.30046,0c-3.10762,0 -5.61099,2.50336 -5.61099,5.61099s2.50336,5.61099 5.61099,5.61099l18.30046,0c3.10762,0 5.61099,-2.50336 5.61099,-5.61099s-2.58969,-5.61099 -5.61099,-5.61099z" fill="#2A284F"/>
     <path stroke="null" id="svg_82" d="m1037.16758,1188.84578l-41.69397,0c-3.10762,0 -5.61099,2.50336 -5.61099,5.61099c0,3.10762 2.50336,5.61099 5.61099,5.61099l41.69397,0c3.10762,0 5.61099,-2.50336 5.61099,-5.61099c0,-3.10762 -2.50336,-5.61099 -5.61099,-5.61099z" fill="#2A284F"/>
     <path stroke="null" id="svg_83" d="m1121.07345,1166.40183l-6.12893,0c-3.10762,0 -5.61099,2.50336 -5.61099,5.61099s2.50336,5.61099 5.61099,5.61099l6.12893,0c3.10762,0 5.61099,-2.50336 5.61099,-5.61099s-2.50336,-5.61099 -5.61099,-5.61099z" fill="#2A284F"/>
     <path stroke="null" id="svg_84" d="m918.12829,1188.84578l-47.39128,0l-18.99104,0l-14.84754,0c-3.10762,0 -5.61099,-2.50336 -5.61099,-5.61099c0,-3.10762 2.50336,-5.61099 5.61099,-5.61099l14.84754,0l18.99104,0l225.13015,0c3.10762,0 5.61099,-2.50336 5.61099,-5.61099s-2.50336,-5.61099 -5.61099,-5.61099l-980.71458,0c-3.10762,0 -5.61099,2.50336 -5.61099,5.61099s2.50336,5.61099 5.61099,5.61099l40.65809,0l29.34979,0l4.48879,0c3.10762,0 5.61099,2.50336 5.61099,5.61099c0,3.10762 -2.50336,5.61099 -5.61099,5.61099l-4.48879,0l-19.5953,0c-3.10762,0 -5.61099,2.50336 -5.61099,5.61099c0,3.10762 2.50336,5.61099 5.61099,5.61099l752.64945,0c3.10762,0 5.61099,-2.50336 5.61099,-5.61099c-0.08632,-3.10762 -2.58969,-5.61099 -5.69731,-5.61099z" fill="#2A284F"/>
    </g>
   </g>
  </g>
 </g>
</svg>