<?xml version="1.0" encoding="utf-8"?>
<!-- Generator: Adobe Illustrator 18.0.0, SVG Export Plug-In . SVG Version: 6.00 Build 0)  -->
<!DOCTYPE svg PUBLIC "-//W3C//DTD SVG 1.1//EN" "http://www.w3.org/Graphics/SVG/1.1/DTD/svg11.dtd">
<svg version="1.1" xmlns="http://www.w3.org/2000/svg" xmlns:xlink="http://www.w3.org/1999/xlink" x="0px" y="0px" width="800px"
	 height="600px" viewBox="0 0 800 600" enable-background="new 0 0 800 600" xml:space="preserve">
<g id="Background">
	<rect fill="#8ED8F8" width="800" height="600"/>
	<g>
		<path fill="#00B9F2" d="M78.8,553.9c-12.4,0-37.3-7.3-37.8,5.7c-0.5,13,17.1,6.7,30.5,6.7s43.9,6.7,43.9-4
			C115.3,549.9,101,553.9,78.8,553.9z"/>
		<g>
			<path fill="#FFFFFF" d="M41.7,425.2c0,0,10,125.9,12.7,132.6c2.7,6.6,40,8.7,45.3,0c5.3-8.7,15.3-132.6,15.3-132.6
				s-12-8.1-36.7-8.1S41.7,425.2,41.7,425.2z"/>
			<path fill="#754C29" d="M45.8,426.6c0,0,12.7-6,32.6-6s32.2,6,32.2,6s-8,4.3-32.4,4.3S45.8,426.6,45.8,426.6z"/>
			<g>
				<g>
					<path fill="#D7DF23" d="M38.6,342.5c-11.8,4,1.5,19.8-3.5,30.3s6.5,12.3,11.8,17.5s-2.4,8.8,0,19.5
						c2.4,10.7,10.5,5.5,15.8,17.6h6.5c0,0,4-8.1-1.6-17.4s-0.9-13-3.6-23.8s-9.8-6.3-11.8-13.8s1-10.5-1.5-20.5
						S44.1,340.6,38.6,342.5z"/>
					<g>
						<path fill="#FFFFFF" d="M66.6,427.4h-0.5c0-6.8-0.2-8.8-6.7-17.2c-3.9-5.1-3.5-9-3.1-12.9c0.3-2.6,0.5-5.1-0.7-7.7
							c-1-2.2-2.6-3.8-4.2-5.5c-3.3-3.4-6.7-6.9-6.3-15.1c0.5-12-4-20.5-4.1-20.6l0.4-0.2c0,0.1,4.6,8.7,4.1,20.9
							c-0.3,8,3,11.4,6.2,14.7c1.7,1.8,3.3,3.4,4.3,5.7c1.3,2.7,1,5.3,0.7,8c-0.4,3.7-0.8,7.6,3,12.5
							C66.3,418.4,66.6,420.4,66.6,427.4z"/>
					</g>
				</g>
				<g>
					<path fill="#009444" d="M75.7,427.4c0-10.6-11.5-9.4-8.5-22.9c3.3-14.7-9.1-11.6-10.2-24c-1.1-12.4,4.4-7.5,0-22.8
						s3-21.9,11.8-18.9s1.2,15.4,7.7,24.1s10.6,8.5,7.6,22.4s0.5,12.3,3,22.4c2.5,10.1-4.1,19.6-4.1,19.6H75.7z"/>
					<g>
						<path fill="#FFFFFF" d="M79.6,427.4l-0.5,0c0.3-6.3-0.6-8.6-1.5-10.8c-0.8-2-1.5-3.8-1.2-8.1c0.5-9.1-0.1-11.6-4.7-20.6
							c-2.2-4.3-1.9-7.6-1.6-10.8c0.4-3.6,0.8-7.3-2.7-12.8c-6.5-10.2-4.1-18.1-4-18.2l0.5,0.2c0,0.1-2.4,7.8,4,17.8
							c3.5,5.6,3.1,9.4,2.7,13.1c-0.3,3.2-0.7,6.3,1.5,10.5c4.7,9.1,5.3,11.6,4.8,20.8c-0.2,4.2,0.5,6,1.2,7.9
							C78.9,418.5,79.8,421,79.6,427.4z"/>
					</g>
				</g>
				<g>
					<path fill="#39B54A" d="M85.8,427.4c0,0-2-11.1,4-22.4s-5-20,1.8-27.3s6.8-7.3,5-17s2-21.5,10-19c8.4,2.7,1.8,14.2,5.5,20.7
						s4.8,13-2,18.5s-1,10-3,18.5s-10,8.8-12.8,27.9H85.8z"/>
					<g>
						<path fill="#FFFFFF" d="M89.8,427.4h-0.5c0-12.3,2.2-15.5,4.2-18.4c0.9-1.3,1.8-2.6,2.3-4.8c0.6-2.9,0.5-5.5,0.3-8.4
							c-0.2-3.7-0.4-7.9,1.2-13.2c1-3.5,2.7-5.7,4.2-7.7c2.6-3.5,4.6-6.2,2.6-13.7c-3.3-12.1,0-13.3,0.2-13.3l0.1,0.5l-0.1-0.2
							l0.1,0.2c0,0-3,1.2,0.2,12.7c2.1,7.7-0.1,10.7-2.7,14.1c-1.4,1.9-3.1,4.1-4.1,7.5c-1.6,5.2-1.3,9.2-1.1,13
							c0.2,2.9,0.3,5.6-0.4,8.5c-0.5,2.3-1.4,3.6-2.4,5C92,412.1,89.8,415.2,89.8,427.4z"/>
					</g>
				</g>
			</g>
		</g>
	</g>
	<g>
		<path fill="#00B9F2" d="M720.4,553.9c-12.4,0-37.3-7.3-37.8,5.7c-0.5,13,17.1,6.7,30.5,6.7c13.4,0,43.9,6.7,43.9-4
			C756.8,549.9,742.5,553.9,720.4,553.9z"/>
		<g>
			<path fill="#FFFFFF" d="M683.2,425.2c0,0,10,125.9,12.7,132.6c2.7,6.6,40,8.7,45.3,0c5.3-8.7,15.3-132.6,15.3-132.6
				s-12-8.1-36.7-8.1C695.2,417.1,683.2,425.2,683.2,425.2z"/>
			<path fill="#754C29" d="M687.3,426.6c0,0,12.7-6,32.6-6c19.9,0,32.2,6,32.2,6s-8,4.3-32.4,4.3S687.3,426.6,687.3,426.6z"/>
			<g>
				<g>
					<path fill="#D7DF23" d="M680.2,342.5c-11.8,4,1.5,19.8-3.5,30.3s6.5,12.3,11.8,17.5s-2.4,8.8,0,19.5
						c2.4,10.7,10.5,5.5,15.8,17.6h6.5c0,0,4-8.1-1.6-17.4s-0.9-13-3.6-23.8s-9.8-6.3-11.8-13.8s1-10.5-1.5-20.5
						S685.7,340.6,680.2,342.5z"/>
					<g>
						<path fill="#FFFFFF" d="M708.1,427.4h-0.5c0-6.8-0.2-8.8-6.7-17.2c-3.9-5.1-3.5-9-3.1-12.9c0.3-2.6,0.5-5.1-0.7-7.7
							c-1-2.2-2.6-3.8-4.2-5.5c-3.3-3.4-6.7-6.9-6.3-15.1c0.5-12-4-20.5-4.1-20.6l0.4-0.2c0,0.1,4.6,8.7,4.1,20.9
							c-0.3,8,3,11.4,6.2,14.7c1.7,1.8,3.3,3.4,4.3,5.7c1.3,2.7,1,5.3,0.7,8c-0.4,3.7-0.8,7.6,3,12.5
							C707.9,418.4,708.1,420.4,708.1,427.4z"/>
					</g>
				</g>
				<g>
					<path fill="#009444" d="M717.3,427.4c0-10.6-11.5-9.4-8.5-22.9c3.3-14.7-9.1-11.6-10.2-24c-1.1-12.4,4.4-7.5,0-22.8
						s3-21.9,11.8-18.9c8.8,3,1.2,15.4,7.7,24.1s10.6,8.5,7.6,22.4s0.5,12.3,3,22.4c2.5,10.1-4.1,19.6-4.1,19.6H717.3z"/>
					<g>
						<path fill="#FFFFFF" d="M721.1,427.4l-0.5,0c0.3-6.3-0.6-8.6-1.5-10.8c-0.8-2-1.5-3.8-1.2-8.1c0.5-9.1-0.1-11.6-4.7-20.6
							c-2.2-4.3-1.9-7.6-1.6-10.8c0.4-3.6,0.8-7.3-2.7-12.8c-6.5-10.2-4.1-18.1-4-18.2l0.5,0.2c0,0.1-2.4,7.8,4,17.8
							c3.5,5.6,3.1,9.4,2.7,13.1c-0.3,3.2-0.7,6.3,1.5,10.5c4.7,9.1,5.3,11.6,4.8,20.8c-0.2,4.2,0.5,6,1.2,7.9
							C720.4,418.5,721.4,421,721.1,427.4z"/>
					</g>
				</g>
				<g>
					<path fill="#39B54A" d="M727.4,427.4c0,0-2-11.1,4-22.4s-5-20,1.8-27.3s6.8-7.3,5-17s2-21.5,10-19c8.4,2.7,1.8,14.2,5.5,20.7
						s4.8,13-2,18.5s-1,10-3,18.5s-10,8.8-12.8,27.9H727.4z"/>
					<g>
						<path fill="#FFFFFF" d="M731.4,427.4h-0.5c0-12.3,2.2-15.5,4.2-18.4c0.9-1.3,1.8-2.6,2.3-4.8c0.6-2.9,0.5-5.5,0.3-8.4
							c-0.2-3.7-0.4-7.9,1.2-13.2c1-3.5,2.7-5.7,4.2-7.7c2.6-3.5,4.6-6.2,2.6-13.7c-3.3-12.1,0-13.3,0.2-13.3l0.1,0.5l-0.1-0.2
							l0.1,0.2c0,0-3,1.2,0.2,12.7c2.1,7.7-0.1,10.7-2.7,14.1c-1.4,1.9-3.1,4.1-4.1,7.5c-1.6,5.2-1.3,9.2-1.1,13
							c0.2,2.9,0.3,5.6-0.4,8.5c-0.5,2.3-1.4,3.6-2.4,5C733.5,412.1,731.4,415.2,731.4,427.4z"/>
					</g>
				</g>
			</g>
		</g>
	</g>
</g>
<g id="Object">
	<g>
		<g>
			<path fill="#00B9F2" d="M221.6,553.9c-24.7,0-74.7-7.3-75.7,5.7s34.1,6.7,60.9,6.7s87.7,6.7,87.7-4
				C294.5,549.9,265.9,553.9,221.6,553.9z"/>
			<g>
				<g>
					<path fill="#F79D61" d="M191.7,548.2c-13.5-105.9-10.3-229.2-9.4-244.4h79.8c4.1,9.2,30.3,70.6,30.3,120.6
						c0,48.7-40.1,109.8-46,118.8L239,537c3.9-8.5,25.3-61.7,23.5-108.6c-2-52.9-24.3-92.5-24.5-92.9l-0.5-0.9l-18.7-1.2l-0.2,1.9
						c-11.9,89.4-16.2,200-16.3,214.5L191.7,548.2z"/>
					<path fill="#282F39" d="M180.5,301.8c0,0-8,114.6,7,230.6h20c0,0,0-99,13-197l15.7,1c0,0,22.3,39,24.3,92s-19.3,95-19.3,95
						l16.3,9c0,0,36.9-53,36.9-108s-31-122.6-31-122.6H180.5z"/>
					<path fill="#282F39" d="M190.5,539c0,0-1,8-13.6,13.8c-12.6,5.8-18.9,9.5-6.6,11.8c7.7,1.4,34.5-3.3,36.3-9.8S202,539,202,539
						s-1.5,4-5,4.8S195.5,539,190.5,539z"/>
					<path fill="#282F39" d="M252.4,534.7c0,0-1.1,8,9.6,16.8c10.7,8.8,15.8,14.1,3.4,13.1c-7.8-0.6-32.5-12.1-32.5-18.8
						c0-6.7,8.4-14,8.4-14s0.4,4.3,3.6,5.9C248.1,539.3,247.6,533.4,252.4,534.7z"/>
				</g>
				<g>
					<path fill="#ED1C24" d="M269.1,307c-27.5,12.3-92.2,1-92.2,1c1-20.6,2-100.3,2-100.3c-8.3,53.8-47.2,59.5-52.9,30.7
						c-4.9-24.5,8.3-77.2,8.3-77.2l14.2,3.2c0,0-11.8,70.6-2.9,70.1c8.8-0.5,15.2-41.6,22.6-56.4c11.3-22.6,94.6-16.9,103.9,0
						c4.2,7.6,29.9,41.7,43.6,44.6c13.7,2.9,44.2-47.4,44.2-47.4l12.5,7.6c0,0-17,35.9-36.6,54c-19.6,18.1-51.5-5.9-66.7-24.5
						C269.1,212.4,272,266.8,269.1,307z"/>
					<g>
						<polygon fill="#F79D61" points="211.9,126.3 211.9,158.7 226.3,179.7 233,158.7 232.5,132.1 						"/>
						<path fill="#F79D61" d="M208.1,108.1c0-13.6,12.5-19.1,25.4-16.9c12.9,2.2,17.6,14,15.4,32.7s-9.2,24.3-18.4,24.3
							C219.1,148.2,208.1,125,208.1,108.1z"/>
						<path fill="#592D2C" d="M211.5,125.6c0,0,2.3-0.9,1.9-10.6c-0.4-9.8-0.7-15.7,2.9-16.9c3.7-1.3,20,5.5,28.4-0.2
							c0,0,2,3,2.5,4.6c0,0,1.6-3.8-0.7-7.3c-2.4-3.5-1.2-8.5-10.1-12.3c-8.9-3.9-19.3,2.6-24.9,8.8s-11.5,6.1-12.1,15.8
							s7.9,29.5,12.1,28.9C215.6,135.6,211.5,125.6,211.5,125.6z"/>
						<path fill="#F79D61" d="M212.5,122.1c0,0-9.6-11.1-8.5-2.6s8.5,14.8,10.9,10.8L212.5,122.1z"/>
						<g>
							<ellipse fill="#0F0908" cx="228.1" cy="116.2" rx="1.6" ry="2.6"/>
							<ellipse fill="#0F0908" cx="243.6" cy="116.2" rx="1.6" ry="2.6"/>
						</g>
						<path fill="#E97550" d="M239.1,116.4c0.3,1.8,0.9,5.1,1.8,8c0,0,1.3-1.4,1.8-0.2c0.5,1.3-1.4,1.9-1.4,1.9s-1.7,3.6-4.5,0.9
							c0,0-2.8-0.6-2.1-2c0.7-1.4,1.7,0.2,1.7,0.2s-0.7-3.9-0.8-8.6c0-0.8,0.6-1.5,1.4-1.7c0,0,0,0,0.1,0
							C238,114.8,238.9,115.4,239.1,116.4z"/>
						<path fill="#0F0908" d="M233.1,110c0,0-6.3-4.4-10,1.6c0,0-2.2-2.7,1.7-5S234.5,104.9,233.1,110z"/>
						<path fill="#0F0908" d="M238.4,110c0,0,6.3-4.4,10,1.6c0,0,2.2-2.7-1.7-5S236.9,104.9,238.4,110z"/>
						<g>
							<path fill="#0F0908" d="M228.4,129.9c0.9-1.9,4.5,1.4,10.1,0.7c3.5-0.5,4.7-2,5.8-0.3c1.2,1.8-0.1,6.3-6,6.8
								C232.4,137.6,226.8,133.2,228.4,129.9z"/>
							<path fill="#FFFFFF" d="M238.5,130.6c-3.9,0.5-6.9-0.9-8.6-1.2c1.9,1.7,5.1,3,8.4,2.7c2.6-0.2,4.3-1.2,5.3-2.4
								C242.6,129.2,241.3,130.2,238.5,130.6z"/>
							<path fill="#F15B40" d="M229.7,134.2c1.9,1.8,5.2,3.1,8.6,2.8c0.4,0,0.7-0.1,1-0.1C236.2,132.7,232.4,133.1,229.7,134.2z"/>
						</g>
					</g>
					<path fill="#E6E7E8" d="M211.9,158.7c0,0-12.8,1.5,0,28.3c0,0,0.3-10.8,5.8-11.4c5.5-0.6,8.5,7.2,8.5,7.2s3.1-9.4,6.9-7.5
						s5.2,11.8,5.2,11.8s7.9-23.9-5.2-28.3l-6.7,21L211.9,158.7z"/>
					<g>
						<path fill="#E88759" d="M135.6,159.7c0,0-4.1-11.8-2.8-13.3s5.5,9,5.5,9L135.6,159.7z"/>
						<path fill="#F79D61" d="M134.2,161.1c0,0,4.2-21.4,7.1-25.8c2.9-4.4,1.1,9.4,1.1,9.4s2.6-12.3,4.4-11.6c1.8,0.7,0,15,0,15
							s2.2-12.3,3.7-11.9c1.5,0.4,0,13.3,0,13.3s2.9-9.2,4.2-9c1.3,0.2-6.3,23.8-6.3,23.8L134.2,161.1z"/>
					</g>
					<g>
						<g>
							<g>
								<path fill="#F79D61" d="M361.6,174.4c0,0-0.2-12.5,1.6-13.5c1.7-1,2.3,10.3,2.3,10.3L361.6,174.4z"/>
								<g>
									<path fill="#F79D61" d="M359.9,175.3c0,0,10.8-18.9,15-22.2c4.2-3.2-1.9,9.2-1.9,9.2s6.4-10.9,7.9-9.6
										c1.5,1.3-4.8,14.2-4.8,14.2s6-11,7.3-10.1c1.3,0.9-4.2,12.6-4.2,12.6s5.7-7.8,6.9-7.2c1.2,0.6-13.6,20.6-13.6,20.6
										L359.9,175.3z"/>
								</g>
							</g>
						</g>
						<g>
							<path fill="#EC8B5B" d="M371.3,179.5l-0.5-0.1c0.9-7.7-4.3-11.5-4.4-11.6l0.3-0.5C366.7,167.4,372.2,171.5,371.3,179.5z"/>
						</g>
					</g>
					<path fill="#D71920" d="M239.4,205c0,0-1.7,21.4,10.5,21.4s9.3-21.4,9.3-21.4H239.4z"/>
				</g>
			</g>
		</g>
		<g>
			<path fill="#00B9F2" d="M602.2,553.9c-24.7,0-74.7-7.3-75.7,5.7s34.1,6.7,60.9,6.7c26.8,0,87.7,6.7,87.7-4
				C675.2,549.9,646.6,553.9,602.2,553.9z"/>
			<g>
				<g>
					<path fill="#F79D61" d="M634.3,548.2c13.5-105.9,10.3-229.2,9.4-244.4h-79.8c-4.1,9.2-30.3,70.6-30.3,120.6
						c0,48.7,40.1,109.8,46,118.8l7.5-6.3c-3.9-8.5-25.3-61.7-23.5-108.6c2-52.9,24.3-92.5,24.5-92.9l0.5-0.9l18.7-1.2l0.2,1.9
						c11.9,89.4,16.2,200,16.3,214.5L634.3,548.2z"/>
					<path fill="#603913" d="M645.5,301.8c0,0,8,114.6-7,230.6h-20c0,0,0-99-13-197l-15.7,1c0,0-22.3,39-24.3,92s19.3,95,19.3,95
						l-16.3,9c0,0-36.9-53-36.9-108s31-122.6,31-122.6H645.5z"/>
					<path fill="#8B5E3C" d="M635.5,539c0,0,1,8,13.6,13.8c12.6,5.8,18.9,9.5,6.6,11.8c-7.7,1.4-34.5-3.3-36.3-9.8S624,539,624,539
						s1.5,4,5,4.8S630.5,539,635.5,539z"/>
					<path fill="#8B5E3C" d="M573.5,534.7c0,0,1.1,8-9.6,16.8c-10.7,8.8-15.8,14.1-3.4,13.1c7.8-0.6,32.5-12.1,32.5-18.8
						s-8.4-14-8.4-14s-0.4,4.3-3.6,5.9S578.4,533.4,573.5,534.7z"/>
				</g>
				<g>
					<path fill="#8DC63F" d="M657.9,178.1c-11.3-22.6-94.6-16.9-103.9,0c-4.2,7.6-29.9,41.7-43.6,44.6
						c-13.7,2.9-44.2-47.4-44.2-47.4l-12.5,7.6c0,0,17,35.9,36.6,54s51.5-5.9,66.7-24.5c0,0-2.9,54.4,0,94.6
						c27.5,12.3,92.2,1,92.2,1c-1-20.6-2-100.3-2-100.3L657.9,178.1z"/>
					<g>
						<polygon fill="#F79D61" points="614.1,126.3 614.1,158.7 599.7,179.7 593,158.7 593.5,132.1 						"/>
						<path fill="#F79D61" d="M617.9,108.1c0-13.6-12.5-19.1-25.4-16.9c-12.9,2.2-17.6,14-15.4,32.7c2.2,18.8,9.2,24.3,18.4,24.3
							C606.9,148.2,617.9,125,617.9,108.1z"/>
						<path fill="#414042" d="M614.1,126.3c-1-3.9-2.3-4.2-1.4-15.9c1-11.7-1-14.5-9.2-12.1s-17.7,2.3-22.3-0.7l-2.5,4.6
							c0,0-2.1-3.8,0.8-7.3c2.9-3.5,2.5-6.9,5.9-9.9c3.5-3.1,7.4-0.8,11.8-1.6s10.6-2.5,13.8-0.1c3.2,2.4,2,5.3,5.5,7.3
							s5.7,2.1,7.8,5.8c2.2,3.7-0.3,4.9,0.8,9.8c1.2,4.9,2.1,8.4-0.1,11.1c-2.2,2.7-4.9,3.3-6.1,8.9c-1.2,5.7-1.2,10.1-5.4,9.6
							C609.5,135.3,615.2,130.5,614.1,126.3z"/>
						<path fill="#F79D61" d="M613.5,122.1c0,0,9.6-11.1,8.5-2.6c-1.1,8.5-8.5,14.8-10.9,10.8L613.5,122.1z"/>
						<path fill="#414042" d="M586.4,126.3c0,0-9.1-0.7-9.4,4.1c-0.4,4.8-1.7,24.3,9.4,26.7c11.2,2.3,19.3-4.7,23.7-14
							c4.3-9.3,5.8-26.9,5.8-26.9h-3.3c0,0-2.5,11.1-6,12.3C603,129.7,605.4,126.3,586.4,126.3z"/>
						<g>
							<ellipse fill="#0F0908" cx="597.8" cy="116.2" rx="1.6" ry="2.6"/>
							<ellipse fill="#0F0908" cx="582.4" cy="116.2" rx="1.6" ry="2.6"/>
						</g>
						<path fill="#E97550" d="M586.9,116.4c-0.3,1.8-0.9,5.1-1.8,8c0,0-1.3-1.4-1.8-0.2c-0.5,1.3,1.4,1.9,1.4,1.9s1.7,3.6,4.5,0.9
							c0,0,2.8-0.6,2.1-2s-1.7,0.2-1.7,0.2s0.7-3.9,0.8-8.6c0-0.8-0.6-1.5-1.4-1.7c0,0,0,0-0.1,0C588,114.8,587.1,115.4,586.9,116.4
							z"/>
						<path fill="#414042" d="M592.9,110c0,0,6.3-4.4,10,1.6c0,0,2.2-2.7-1.7-5S591.4,104.9,592.9,110z"/>
						<path fill="#414042" d="M587.6,110c0,0-6.3-4.4-10,1.6c0,0-2.2-2.7,1.7-5C583.2,104.3,589,104.9,587.6,110z"/>
						<path fill="#FFFFFF" d="M597.6,130.9c-0.9-1.3-4.5,1-10.1,0.5c-3.5-0.3-4.7-1.4-5.8-0.2c-1.2,1.2,0.1,4.4,6,4.7
							C593.6,136.3,599.2,133.2,597.6,130.9z"/>
					</g>
					<path fill="#FFDE17" d="M614.1,158.7c0,0,12.8,1.5,0,28.3c0,0-0.3-10.8-5.8-11.4c-5.5-0.6-8.5,7.2-8.5,7.2s-3.1-9.4-6.9-7.5
						c-3.8,1.8-5.2,11.8-5.2,11.8s-7.9-23.9,5.2-28.3l6.7,21L614.1,158.7z"/>
					<g>
						<path fill="#E88759" d="M592.9,227.3c0,0-0.8-12.5-2.6-13.3c-1.8-0.8-1.5,10.5-1.5,10.5L592.9,227.3z"/>
						<path fill="#F79D61" d="M594.8,228.1c0,0-12.2-18.1-16.6-21c-4.4-2.9,2.6,9.1,2.6,9.1s-7.2-10.3-8.6-8.9
							c-1.4,1.4,5.9,13.8,5.9,13.8s-6.8-10.5-8-9.6c-1.2,0.9,5.2,12.2,5.2,12.2s-6.3-7.3-7.4-6.6c-1.1,0.7,15.1,19.5,15.1,19.5
							L594.8,228.1z"/>
					</g>
					<g>
						<g>
							<g>
								<path fill="#F79D61" d="M464.4,174.4c0,0,0.2-12.5-1.6-13.5c-1.7-1-2.3,10.3-2.3,10.3L464.4,174.4z"/>
								<g>
									<path fill="#F79D61" d="M466.1,175.3c0,0-10.8-18.9-15-22.2c-4.2-3.2,1.9,9.2,1.9,9.2s-6.4-10.9-7.9-9.6
										c-1.5,1.3,4.8,14.2,4.8,14.2s-6-11-7.3-10.1c-1.3,0.9,4.2,12.6,4.2,12.6s-5.7-7.8-6.9-7.2c-1.2,0.6,13.6,20.6,13.6,20.6
										L466.1,175.3z"/>
								</g>
							</g>
						</g>
						<g>
							<path fill="#EC8B5B" d="M454.7,179.5l0.5-0.1c-0.9-7.7,4.3-11.5,4.4-11.6l-0.3-0.5C459.3,167.4,453.8,171.5,454.7,179.5z"/>
						</g>
					</g>
					<path fill="#8DC63F" d="M657.9,178.1c0,0,24.6,70.1,2.5,90.7c-30.8,28.8-77.5-32.1-77.5-32.1l11.8-8.5c0,0,41.8,36.3,51.7,30.6
						c11.5-6.5,0.7-51.1,0.7-51.1L657.9,178.1z"/>
					<path fill="none" stroke="#FFFFFF" stroke-width="0.5" stroke-miterlimit="10" d="M648.4,275.6c-29.6,7.8-65.5-39-65.5-39
						l11.8-8.5c0,0,40.9,37.1,52.3,30.3"/>
				</g>
			</g>
		</g>
		<g>
			<path fill="#00B9F2" d="M449.1,553.9c-24.7,0-74.7-7.3-75.7,5.7s34.1,6.7,60.9,6.7s87.7,6.7,87.7-4
				C522,549.9,493.4,553.9,449.1,553.9z"/>
			<g>
				<g>
					<path fill="#FBC3A9" d="M491.7,303.8h-79.6h-0.2l0,0c0.9,15.3-4.1,138.5,9.4,244.4l10.5,1.5c0.1-14.6,0.4-125.1,12.3-214.5
						l0.2-1.9h11.1l0.2,1.9c11.9,89.4,16.2,200,16.3,214.5l10.5-1.5C495.8,442.3,492.6,319,491.7,303.8z"/>
					<path fill="#0F4C87" d="M483.4,539c0,0,1,8,13.6,13.8s18.9,9.5,6.6,11.8c-7.7,1.4-34.5-3.3-36.3-9.8s4.5-15.8,4.5-15.8
						s1.5,4,5,4.8S478.4,539,483.4,539z"/>
					<path fill="#0F4C87" d="M420.3,539c0,0-1,8-13.6,13.8c-12.6,5.8-18.9,9.5-6.6,11.8c7.7,1.4,34.5-3.3,36.3-9.8
						s-4.5-15.8-4.5-15.8s-1.5,4-5,4.8S425.3,539,420.3,539z"/>
					<path fill="#282F39" d="M494,301.8h-83c0,0-14.4,134.1,5.9,230.6h21.1c0,0-3.6-90.1,7.1-196.4l0,0l8.8-0.6c13,98,13,197,13,197
						h20C502,416.5,494,301.8,494,301.8z"/>
				</g>
				<g>
					<path fill="#0F4C87" d="M499.5,171.3c-19.6-10.4-65.2-9.3-87.2,0.1c-27,11.5-45.5,43.9-49.7,77.3c-6.7,53.1,26.3,78,26.3,78
						l8.7-11.8c0,0-21.3-21.1-15.6-59.5c2.9-19.6,13.7-37.1,23.2-46l0.3,3c0,0-2.9,54.4,0,94.6c27.5,12.3,92.2,1,92.2,1
						c-1-20.6-2-100.3-2-100.3s34.3,20.4,34.3,54.4s-25.2,52.9-25.2,52.9l8.6,11.8c0,0,36.4-27.6,36.3-66.6
						C549.6,221,519.6,181.9,499.5,171.3z"/>
					<g>
						<path fill="#F8A79B" d="M504,316.7c0,0-12.5,0.9-13.3,2.7c-0.8,1.8,10.5,1.4,10.5,1.4L504,316.7z"/>
						<path fill="#FBC3A9" d="M504.7,314.9c0,0-17.9,12.4-20.8,16.9s9-2.7,9-2.7s-10.3,7.3-8.8,8.7c1.4,1.4,13.8-6,13.8-6
							s-10.4,7-9.5,8.1c1,1.2,12.2-5.3,12.2-5.3s-7.2,6.4-6.6,7.5s19.3-15.3,19.3-15.3L504.7,314.9z"/>
					</g>
					<g>
						<path fill="#F8A79B" d="M398.4,316.7c0,0,12.5,0.9,13.3,2.7c0.8,1.8-10.5,1.4-10.5,1.4L398.4,316.7z"/>
						<path fill="#FBC3A9" d="M397.6,314.9c0,0,17.9,12.4,20.8,16.9c2.9,4.5-9-2.7-9-2.7s10.3,7.3,8.8,8.7c-1.4,1.4-13.8-6-13.8-6
							s10.4,7,9.5,8.1c-1,1.2-12.2-5.3-12.2-5.3s7.2,6.4,6.6,7.5S389,326.6,389,326.6L397.6,314.9z"/>
					</g>
					<g>
						<polygon fill="#FBC3A9" points="442,132.1 441.2,164.5 462.6,164.3 462.6,126.3 						"/>
						<path fill="#FBC3A9" d="M466.4,108.1c0-13.6-12.5-19.1-25.4-16.9c-12.9,2.2-17.6,14-15.4,32.7s9.2,24.3,18.4,24.3
							C455.4,148.2,466.4,125,466.4,108.1z"/>
						<path fill="#FBC3A9" d="M462,122.1c0,0,9.6-11.1,8.5-2.6c-1.1,8.5-8.5,14.8-10.9,10.8L462,122.1z"/>
						<g>
							<g>
								<g>
									<ellipse fill="#0F0908" cx="446.4" cy="116.2" rx="1.6" ry="2.6"/>
								</g>
								<g>
									<ellipse fill="#0F0908" cx="430.9" cy="116.2" rx="1.6" ry="2.6"/>
								</g>
							</g>
						</g>
						<path fill="#F8A79B" d="M435.5,116.4c-0.3,1.8-0.9,5.1-1.8,8c0,0-1.3-1.4-1.8-0.2c-0.5,1.3,1.4,1.9,1.4,1.9s1.7,3.6,4.5,0.9
							c0,0,2.8-0.6,2.1-2s-1.7,0.2-1.7,0.2s0.7-3.9,0.8-8.6c0-0.8-0.6-1.5-1.4-1.7c0,0,0,0-0.1,0
							C436.5,114.8,435.6,115.4,435.5,116.4z"/>
						<path fill="#FFDE17" d="M441.4,110c0,0,6.3-4.4,10,1.6c0,0,2.2-2.7-1.7-5S440,104.9,441.4,110z"/>
						<path fill="#FFDE17" d="M436.1,110c0,0-6.3-4.4-10,1.6c0,0-2.2-2.7,1.7-5S437.6,104.9,436.1,110z"/>
						<g>
							<path fill="#0F0908" d="M446.1,129.9c-0.9-1.9-4.5,1.4-10.1,0.7c-3.5-0.5-4.7-2-5.8-0.3c-1.2,1.8,0.1,6.3,6,6.8
								C442.1,137.6,447.7,133.2,446.1,129.9z"/>
							<path fill="#FFFFFF" d="M436,130.6c3.9,0.5,6.9-0.9,8.6-1.2c-1.9,1.7-5.1,3-8.4,2.7c-2.6-0.2-4.3-1.2-5.3-2.4
								C431.9,129.2,433.2,130.2,436,130.6z"/>
							<path fill="#F15B40" d="M444.8,134.2c-1.9,1.8-5.2,3.1-8.6,2.8c-0.4,0-0.7-0.1-1-0.1C438.4,132.7,442.1,133.1,444.8,134.2z"
								/>
						</g>
						<path fill="#FFDE17" d="M429.8,97.8c0,0,2.5-3.1,8-1.3c5.5,1.8,6.3,21.8,23.3,19.7c0,0-0.8,5.6,1.9,9.3c0,0-3.8,9,0,10.7
							s5.8-15.7,12.1-26c6.3-10.3-6.6-15.4-10-16.6s-6.3-11.3-21.3-12C428.8,80.8,428,95,428,95s-4.9,1.5-5.4,6.3
							c-0.5,4.8,2.5,12.3,2.5,12.3S425.1,104.9,429.8,97.8z"/>
					</g>
					<path fill="#FBC3A9" d="M469.8,164.2c-12-0.9-25-0.4-36.4,1.3c1.7,6.3,6.4,17.4,18.7,17.4C464.1,182.9,468.3,171.2,469.8,164.2
						z"/>
					<path fill="#FBB040" d="M547.9,243.4c-3.9,1.5-10.6,5.5-11.2,15.9c-0.5,9.1,6.2,13.1,11.4,14.8c1-4.5,1.6-9.2,1.5-14.1
						C549.7,254.4,549,248.9,547.9,243.4z"/>
					<path fill="#FBB040" d="M375.8,253.6c-0.5-10.5-7.4-14.5-11.3-16c-0.8,3.6-1.5,7.3-1.9,11c-0.9,7.3-1.1,14.1-0.7,20.4
						C367,267.9,376.3,264.3,375.8,253.6z"/>
					<circle fill="#E6E7E8" cx="450.9" cy="190.8" r="2.2"/>
					<circle fill="#E6E7E8" cx="450.9" cy="204.8" r="2.2"/>
				</g>
			</g>
		</g>
	</g>
	<path fill="#FFFFFF" d="M335,42c-35.5-8.4-40.5,12.5-42.5,26.5S272,83,277,102s-17.5,31.5-17.5,31.5s10,7.2,26-7.1s23,6.6,46.5-4.9
		s31.5,10.3,49-7.8s3.5-23.7,19-39.2S399,41,383,45S354,46.5,335,42z"/>
</g>
<g id="Text">
</g>
</svg>
