<svg width="800" height="1000" xmlns="http://www.w3.org/2000/svg">

 <g>
  <title>background</title>
  <rect fill="#f2f2f6" id="canvas_background" height="1002" width="802" y="-1" x="-1"/>
 </g>
 <g>
  <title>Layer 1</title>
  <g stroke="null" id="Object">
   <g stroke="null" id="svg_38">
    <g stroke="null" id="svg_39">
     <path stroke="null" id="svg_40" d="m147.04089,821.62536c-35.12915,0 -106.24079,-10.3823 -107.66302,8.10673s48.49814,9.52896 86.61398,9.52896s124.72982,9.52896 124.72982,-5.68893c0,-17.63569 -40.67586,-11.94676 -103.68077,-11.94676z" fill="#00B9F2"/>
     <g stroke="null" id="svg_41">
      <g stroke="null" id="svg_42">
       <path stroke="null" id="svg_43" d="m104.51613,813.51864c-19.20014,-150.61446 -14.649,-325.97576 -13.36899,-347.5937l113.49418,0c5.83115,13.08454 43.09365,100.40964 43.09365,171.52128c0,69.26274 -57.03154,156.16116 -65.42271,168.96126l-10.52452,-8.81784c5.54671,-12.08898 35.98249,-87.75176 33.42247,-154.45448c-2.84447,-75.23612 -34.56026,-131.55654 -34.8447,-132.12543l-0.71112,-1.28001l-26.59575,-1.70668l-0.28445,2.70224c-16.92457,127.14761 -23.04017,284.44656 -23.18239,305.06894l-15.07567,-2.27557z" fill="#F79D61"/>
       <path stroke="null" id="svg_44" d="m88.58712,463.08047c0,0 -11.37786,162.98788 9.95563,327.96689l28.44466,0c0,0 0,-140.80105 18.48903,-280.17987l22.32906,1.42223c0,0 31.71579,55.46708 34.56026,130.84542s-27.44909,135.11212 -27.44909,135.11212l23.18239,12.8001c0,0 52.48039,-75.37834 52.48039,-153.60114s-44.08922,-174.36574 -44.08922,-174.36574l-117.9031,0z" fill="#282F39"/>
       <path stroke="null" id="svg_45" d="m102.80945,800.43409c0,0 -1.42223,11.37786 -19.34237,19.62681c-17.92013,8.24895 -26.8802,13.51121 -9.38674,16.78235c10.95119,1.99113 49.06703,-4.69337 51.62705,-13.93788s-6.54227,-22.47128 -6.54227,-22.47128s-2.13335,5.68893 -7.11116,6.82672s-2.13335,-6.82672 -9.24451,-6.82672z" fill="#282F39"/>
       <path stroke="null" id="svg_46" d="m190.84566,794.31849c0,0 -1.56446,11.37786 13.65344,23.89351c15.21789,12.51565 22.47128,20.05348 4.83559,18.63125c-11.09342,-0.85334 -46.22257,-17.20902 -46.22257,-26.73798c0,-9.52896 11.94676,-19.91126 11.94676,-19.91126s0.56889,6.1156 5.12004,8.39117c4.55115,2.27557 3.84003,-6.1156 10.66675,-4.2667z" fill="#282F39"/>
      </g>
      <g stroke="null" id="svg_47">
       <path stroke="null" id="svg_48" d="m214.59695,470.47608c-39.1114,17.49346 -131.12987,1.42223 -131.12987,1.42223c1.42223,-29.298 2.84447,-142.64995 2.84447,-142.64995c-11.80453,76.51613 -67.12939,84.62285 -75.23612,43.66255c-6.96894,-34.8447 11.80453,-109.79637 11.80453,-109.79637l20.19571,4.55115c0,0 -16.78235,100.40964 -4.12448,99.69852c12.51565,-0.71112 21.61794,-59.16489 32.14246,-80.21393c16.07123,-32.14246 134.54322,-24.03573 147.76999,0c5.97338,10.80897 42.52476,59.30711 62.00935,63.43158c19.48459,4.12448 62.86269,-67.41384 62.86269,-67.41384l17.77791,10.80897c0,0 -24.17796,51.05816 -52.05372,76.80057c-27.87576,25.74241 -73.24499,-8.39117 -94.86293,-34.8447c0,0 4.12448,77.36947 0,134.54322z" fill="#ED1C24"/>
       <g stroke="null" id="svg_49">
        <polygon stroke="null" id="svg_50" points="133.24520862102509,213.47860717773438 133.24520862102509,259.5589294433594 153.72540271282196,289.42578125 163.25434863567352,259.5589294433594 162.54322803020477,221.7275848388672 " fill="#F79D61"/>
        <path stroke="null" id="svg_51" d="m127.84075,187.59397c0,-19.34237 17.77791,-27.16465 36.12471,-24.03573c18.3468,3.12891 25.0313,19.91126 21.90239,46.50701s-13.08454,34.56026 -26.16908,34.56026c-16.21345,0 -31.85802,-32.9958 -31.85802,-57.03154z" fill="#F79D61"/>
        <path stroke="null" id="svg_52" d="m132.67634,212.48305c0,0 3.27114,-1.28001 2.70224,-15.07567c-0.56889,-13.93788 -0.99556,-22.32906 4.12448,-24.03573c5.26226,-1.8489 28.44466,7.82228 40.39141,-0.28445c0,0 2.84447,4.2667 3.55558,6.54227c0,0 2.27557,-5.40448 -0.99556,-10.3823c-3.41336,-4.97781 -1.70668,-12.08898 -14.36455,-17.49346c-12.65787,-5.54671 -27.44909,3.69781 -35.4136,12.51565s-16.35568,8.67562 -17.20902,22.47128s11.23564,41.95587 17.20902,41.10253c5.83115,-1.13779 0,-15.36011 0,-15.36011z" fill="#592D2C"/>
        <path stroke="null" id="svg_53" d="m134.09857,207.50523c0,0 -13.65344,-15.78678 -12.08898,-3.69781s12.08898,21.04905 15.50234,15.36011l-3.41336,-11.66231z" fill="#F79D61"/>
        <g stroke="null" id="svg_54">
         <ellipse stroke="null" id="svg_55" ry="3.69781" rx="2.27557" cy="199.11406" cx="156.28541" fill="#0F0908"/>
         <ellipse stroke="null" id="svg_56" ry="3.69781" rx="2.27557" cy="199.11406" cx="178.33001" fill="#0F0908"/>
        </g>
        <path stroke="null" id="svg_57" d="m171.92997,199.3985c0.42667,2.56002 1.28001,7.25339 2.56002,11.37786c0,0 1.8489,-1.99113 2.56002,-0.28445c0.71112,1.8489 -1.99113,2.70224 -1.99113,2.70224s-2.4178,5.12004 -6.40005,1.28001c0,0 -3.98225,-0.85334 -2.98669,-2.84447c0.99556,-1.99113 2.4178,0.28445 2.4178,0.28445s-0.99556,-5.54671 -1.13779,-12.2312c0,-1.13779 0.85334,-2.13335 1.99113,-2.4178c0,0 0,0 0.14222,0c1.28001,-0.14222 2.56002,0.71112 2.84447,2.13335z" fill="#E97550"/>
        <path stroke="null" id="svg_58" d="m163.39657,190.29621c0,0 -8.96007,-6.25782 -14.22233,2.27557c0,0 -3.12891,-3.84003 2.4178,-7.11116s13.79566,-2.4178 11.80453,4.83559z" fill="#0F0908"/>
        <path stroke="null" id="svg_59" d="m170.9344,190.29621c0,0 8.96007,-6.25782 14.22233,2.27557c0,0 3.12891,-3.84003 -2.4178,-7.11116s-13.93788,-2.4178 -11.80453,4.83559z" fill="#0F0908"/>
        <g stroke="null" id="svg_60">
         <path stroke="null" id="svg_61" d="m156.71208,218.59865c1.28001,-2.70224 6.40005,1.99113 14.36455,0.99556c4.97781,-0.71112 6.68449,-2.84447 8.24895,-0.42667c1.70668,2.56002 -0.14222,8.96007 -8.5334,9.67118c-8.39117,0.71112 -16.35568,-5.54671 -14.0801,-10.24008z" fill="#0F0908"/>
         <path stroke="null" id="svg_62" d="m171.07663,219.59421c-5.54671,0.71112 -9.81341,-1.28001 -12.2312,-1.70668c2.70224,2.4178 7.25339,4.2667 11.94676,3.84003c3.69781,-0.28445 6.1156,-1.70668 7.53783,-3.41336c-1.42223,-0.71112 -3.27114,0.71112 -7.25339,1.28001z" fill="#FFFFFF"/>
         <path stroke="null" id="svg_63" d="m158.56098,224.71425c2.70224,2.56002 7.39561,4.40892 12.2312,3.98225c0.56889,0 0.99556,-0.14222 1.42223,-0.14222c-4.40892,-5.97338 -9.81341,-5.40448 -13.65344,-3.84003z" fill="#F15B40"/>
        </g>
       </g>
       <path stroke="null" id="svg_64" d="m133.24523,259.55895c0,0 -18.20458,2.13335 0,40.24919c0,0 0.42667,-15.36011 8.24895,-16.21345c7.82228,-0.85334 12.08898,10.24008 12.08898,10.24008s4.40892,-13.36899 9.81341,-10.66675s7.39561,16.78235 7.39561,16.78235s11.23564,-33.99136 -7.39561,-40.24919l-9.52896,29.86689l-20.62238,-30.00911z" fill="#E6E7E8"/>
       <g stroke="null" id="svg_65">
        <path stroke="null" id="svg_66" d="m24.72887,260.98118c0,0 -5.83115,-16.78235 -3.98225,-18.9157s7.82228,12.8001 7.82228,12.8001l-3.84003,6.1156z" fill="#E88759"/>
        <path stroke="null" id="svg_67" d="m22.73774,262.97231c0,0 5.97338,-30.43578 10.09785,-36.69361c4.12448,-6.25782 1.56446,13.36899 1.56446,13.36899s3.69781,-17.49346 6.25782,-16.4979c2.56002,0.99556 0,21.33349 0,21.33349s3.12891,-17.49346 5.26226,-16.92457c2.13335,0.56889 0,18.9157 0,18.9157s4.12448,-13.08454 5.97338,-12.8001c1.8489,0.28445 -8.96007,33.84914 -8.96007,33.84914l-20.19571,-4.55115z" fill="#F79D61"/>
       </g>
       <g stroke="null" id="svg_68">
        <g stroke="null" id="svg_69">
         <g stroke="null" id="svg_70">
          <path stroke="null" id="svg_71" d="m346.15349,281.88801c0,0 -0.28445,-17.77791 2.27557,-19.20014c2.4178,-1.42223 3.27114,14.649 3.27114,14.649l-5.54671,4.55115z" fill="#F79D61"/>
          <g stroke="null" id="svg_72">
           <path stroke="null" id="svg_73" d="m343.73569,283.16802c0,0 15.36011,-26.8802 21.33349,-31.57357c5.97338,-4.55115 -2.70224,13.08454 -2.70224,13.08454s9.10229,-15.50234 11.23564,-13.65344c2.13335,1.8489 -6.82672,20.19571 -6.82672,20.19571s8.5334,-15.64456 10.3823,-14.36455c1.8489,1.28001 -5.97338,17.92013 -5.97338,17.92013s8.10673,-11.09342 9.81341,-10.24008c1.70668,0.85334 -19.34237,29.298 -19.34237,29.298l-17.92013,-10.66675z" fill="#F79D61"/>
          </g>
         </g>
        </g>
        <g stroke="null" id="svg_74">
         <path stroke="null" id="svg_75" d="m359.94915,289.14139l-0.71112,-0.14222c1.28001,-10.95119 -6.1156,-16.35568 -6.25782,-16.4979l0.42667,-0.71112c0,0.14222 7.82228,5.97338 6.54227,17.35124z" fill="#EC8B5B"/>
        </g>
       </g>
       <path stroke="null" id="svg_76" d="m172.35664,325.40833c0,0 -2.4178,30.43578 14.93344,30.43578s13.22677,-30.43578 13.22677,-30.43578l-28.16021,0z" fill="#D71920"/>
      </g>
     </g>
    </g>
    <g stroke="null" id="svg_77">
     <path stroke="null" id="svg_78" d="m688.3427,821.62536c-35.12915,0 -106.24079,-10.3823 -107.66302,8.10673s48.49814,9.52896 86.61398,9.52896c38.11584,0 124.72982,9.52896 124.72982,-5.68893c0.14222,-17.63569 -40.53364,-11.94676 -103.68077,-11.94676z" fill="#00B9F2"/>
     <g stroke="null" id="svg_79">
      <g stroke="null" id="svg_80">
       <path stroke="null" id="svg_81" d="m733.99638,813.51864c19.20014,-150.61446 14.649,-325.97576 13.36899,-347.5937l-113.49418,0c-5.83115,13.08454 -43.09365,100.40964 -43.09365,171.52128c0,69.26274 57.03154,156.16116 65.42271,168.96126l10.66675,-8.96007c-5.54671,-12.08898 -35.98249,-87.75176 -33.42247,-154.45448c2.84447,-75.23612 34.56026,-131.55654 34.8447,-132.12543l0.71112,-1.28001l26.59575,-1.70668l0.28445,2.70224c16.92457,127.14761 23.04017,284.44656 23.18239,305.06894l14.93344,-2.13335z" fill="#F79D61"/>
       <path stroke="null" id="svg_82" d="m749.92538,463.08047c0,0 11.37786,162.98788 -9.95563,327.96689l-28.44466,0c0,0 0,-140.80105 -18.48903,-280.17987l-22.32906,1.42223c0,0 -31.71579,55.46708 -34.56026,130.84542s27.44909,135.11212 27.44909,135.11212l-23.18239,12.8001c0,0 -52.48039,-75.37834 -52.48039,-153.60114s44.08922,-174.36574 44.08922,-174.36574l117.9031,0z" fill="#603913"/>
       <path stroke="null" id="svg_83" d="m735.70306,800.43409c0,0 1.42223,11.37786 19.34237,19.62681c17.92013,8.24895 26.8802,13.51121 9.38674,16.78235c-10.95119,1.99113 -49.06703,-4.69337 -51.62705,-13.93788s6.54227,-22.47128 6.54227,-22.47128s2.13335,5.68893 7.11116,6.82672s2.13335,-6.82672 9.24451,-6.82672z" fill="#8B5E3C"/>
       <path stroke="null" id="svg_84" d="m647.52462,794.31849c0,0 1.56446,11.37786 -13.65344,23.89351c-15.21789,12.51565 -22.47128,20.05348 -4.83559,18.63125c11.09342,-0.85334 46.22257,-17.20902 46.22257,-26.73798s-11.94676,-19.91126 -11.94676,-19.91126s-0.56889,6.1156 -5.12004,8.39117s-3.69781,-6.1156 -10.66675,-4.2667z" fill="#8B5E3C"/>
      </g>
      <g stroke="null" id="svg_85">
       <path stroke="null" id="svg_86" d="m767.56107,287.15027c-16.07123,-32.14246 -134.54322,-24.03573 -147.76999,0c-5.97338,10.80897 -42.52476,59.30711 -62.00935,63.43158c-19.48459,4.12448 -62.86269,-67.41384 -62.86269,-67.41384l-17.77791,10.80897c0,0 24.17796,51.05816 52.05372,76.80057s73.24499,-8.39117 94.86293,-34.8447c0,0 -4.12448,77.36947 0,134.54322c39.1114,17.49346 131.12987,1.42223 131.12987,1.42223c-1.42223,-29.298 -2.84447,-142.64995 -2.84447,-142.64995l15.21789,-42.09809z" fill="#8DC63F"/>
       <g stroke="null" id="svg_87">
        <polygon stroke="null" id="svg_88" points="705.2672270536423,213.47860717773438 705.2672270536423,259.5589294433594 684.7870634794235,289.42578125 675.2580717802048,259.5589294433594 675.9691923856735,221.7275848388672 " fill="#F79D61"/>
        <path stroke="null" id="svg_89" d="m710.67176,187.59397c0,-19.34237 -17.77791,-27.16465 -36.12471,-24.03573c-18.3468,3.12891 -25.0313,19.91126 -21.90239,46.50701c3.12891,26.73798 13.08454,34.56026 26.16908,34.56026c16.21345,0 31.85802,-32.9958 31.85802,-57.03154z" fill="#F79D61"/>
        <path stroke="null" id="svg_90" d="m705.26727,213.47861c-1.42223,-5.54671 -3.27114,-5.97338 -1.99113,-22.6135c1.42223,-16.64012 -1.42223,-20.62238 -13.08454,-17.20902s-25.17352,3.27114 -31.71579,-0.99556l-3.55558,6.54227c0,0 -2.98669,-5.40448 1.13779,-10.3823c4.12448,-4.97781 3.55558,-9.81341 8.39117,-14.0801c4.97781,-4.40892 10.52452,-1.13779 16.78235,-2.27557s15.07567,-3.55558 19.62681,-0.14222c4.55115,3.41336 2.84447,7.53783 7.82228,10.3823s8.10673,2.98669 11.09342,8.24895c3.12891,5.26226 -0.42667,6.96894 1.13779,13.93788c1.70668,6.96894 2.98669,11.94676 -0.14222,15.78678c-3.12891,3.84003 -6.96894,4.69337 -8.67562,12.65787c-1.70668,8.10673 -1.70668,14.36455 -7.68006,13.65344c-5.68893,-0.71112 2.4178,-7.53783 0.85334,-13.51121z" fill="#414042"/>
        <path stroke="null" id="svg_91" d="m704.41393,207.50523c0,0 13.65344,-15.78678 12.08898,-3.69781c-1.56446,12.08898 -12.08898,21.04905 -15.50234,15.36011l3.41336,-11.66231z" fill="#F79D61"/>
        <path stroke="null" id="svg_92" d="m665.87142,213.47861c0,0 -12.94232,-0.99556 -13.36899,5.83115c-0.56889,6.82672 -2.4178,34.56026 13.36899,37.97362c15.92901,3.27114 27.44909,-6.68449 33.70692,-19.91126c6.1156,-13.22677 8.24895,-38.25806 8.24895,-38.25806l-4.69337,0c0,0 -3.55558,15.78678 -8.5334,17.49346c-5.12004,1.70668 -1.70668,-3.12891 -28.7291,-3.12891z" fill="#414042"/>
        <g stroke="null" id="svg_93">
         <ellipse stroke="null" id="svg_94" ry="3.69781" rx="2.27557" cy="199.11406" cx="682.08488" fill="#0F0908"/>
         <ellipse stroke="null" id="svg_95" ry="3.69781" rx="2.27557" cy="199.11406" cx="660.18249" fill="#0F0908"/>
        </g>
        <path stroke="null" id="svg_96" d="m666.58254,199.3985c-0.42667,2.56002 -1.28001,7.25339 -2.56002,11.37786c0,0 -1.8489,-1.99113 -2.56002,-0.28445c-0.71112,1.8489 1.99113,2.70224 1.99113,2.70224s2.4178,5.12004 6.40005,1.28001c0,0 3.98225,-0.85334 2.98669,-2.84447s-2.4178,0.28445 -2.4178,0.28445s0.99556,-5.54671 1.13779,-12.2312c0,-1.13779 -0.85334,-2.13335 -1.99113,-2.4178c0,0 0,0 -0.14222,0c-1.28001,-0.14222 -2.56002,0.71112 -2.84447,2.13335z" fill="#E97550"/>
        <path stroke="null" id="svg_97" d="m675.11594,190.29621c0,0 8.96007,-6.25782 14.22233,2.27557c0,0 3.12891,-3.84003 -2.4178,-7.11116s-13.93788,-2.4178 -11.80453,4.83559z" fill="#414042"/>
        <path stroke="null" id="svg_98" d="m667.5781,190.29621c0,0 -8.96007,-6.25782 -14.22233,2.27557c0,0 -3.12891,-3.84003 2.4178,-7.11116c5.54671,-3.27114 13.79566,-2.4178 11.80453,4.83559z" fill="#414042"/>
        <path stroke="null" id="svg_99" d="m681.80043,220.02088c-1.28001,-1.8489 -6.40005,1.42223 -14.36455,0.71112c-4.97781,-0.42667 -6.68449,-1.99113 -8.24895,-0.28445c-1.70668,1.70668 0.14222,6.25782 8.5334,6.68449c8.39117,0.56889 16.35568,-3.84003 14.0801,-7.11116z" fill="#FFFFFF"/>
       </g>
       <path stroke="null" id="svg_100" d="m705.26727,259.55895c0,0 18.20458,2.13335 0,40.24919c0,0 -0.42667,-15.36011 -8.24895,-16.21345c-7.82228,-0.85334 -12.08898,10.24008 -12.08898,10.24008s-4.40892,-13.36899 -9.81341,-10.66675c-5.40448,2.56002 -7.39561,16.78235 -7.39561,16.78235s-11.23564,-33.99136 7.39561,-40.24919l9.52896,29.86689l20.62238,-30.00911z" fill="#FFDE17"/>
       <g stroke="null" id="svg_101">
        <path stroke="null" id="svg_102" d="m675.11594,357.12412c0,0 -1.13779,-17.77791 -3.69781,-18.9157c-2.56002,-1.13779 -2.13335,14.93344 -2.13335,14.93344l5.83115,3.98225z" fill="#E88759"/>
        <path stroke="null" id="svg_103" d="m677.81818,358.26191c0,0 -17.35124,-25.74241 -23.60906,-29.86689c-6.25782,-4.12448 3.69781,12.94232 3.69781,12.94232s-10.24008,-14.649 -12.2312,-12.65787c-1.99113,1.99113 8.39117,19.62681 8.39117,19.62681s-9.67118,-14.93344 -11.37786,-13.65344c-1.70668,1.28001 7.39561,17.35124 7.39561,17.35124s-8.96007,-10.3823 -10.52452,-9.38674c-1.56446,0.99556 21.47572,27.73354 21.47572,27.73354l16.78235,-12.08898z" fill="#F79D61"/>
       </g>
       <g stroke="null" id="svg_104">
        <g stroke="null" id="svg_105">
         <g stroke="null" id="svg_106">
          <path stroke="null" id="svg_107" d="m492.35902,281.88801c0,0 0.28445,-17.77791 -2.27557,-19.20014c-2.4178,-1.42223 -3.27114,14.649 -3.27114,14.649l5.54671,4.55115z" fill="#F79D61"/>
          <g stroke="null" id="svg_108">
           <path stroke="null" id="svg_109" d="m494.77682,283.16802c0,0 -15.36011,-26.8802 -21.33349,-31.57357c-5.97338,-4.55115 2.70224,13.08454 2.70224,13.08454s-9.10229,-15.50234 -11.23564,-13.65344c-2.13335,1.8489 6.82672,20.19571 6.82672,20.19571s-8.5334,-15.64456 -10.3823,-14.36455c-1.8489,1.28001 5.97338,17.92013 5.97338,17.92013s-8.10673,-11.09342 -9.81341,-10.24008c-1.70668,0.85334 19.34237,29.298 19.34237,29.298l17.92013,-10.66675z" fill="#F79D61"/>
          </g>
         </g>
        </g>
        <g stroke="null" id="svg_110">
         <path stroke="null" id="svg_111" d="m478.56336,289.14139l0.71112,-0.14222c-1.28001,-10.95119 6.1156,-16.35568 6.25782,-16.4979l-0.42667,-0.71112c0,0.14222 -7.82228,5.97338 -6.54227,17.35124z" fill="#EC8B5B"/>
        </g>
       </g>
       <path stroke="null" id="svg_112" d="m767.56107,287.15027c0,0 34.98693,99.69852 3.55558,128.99652c-43.80477,40.96031 -110.22304,-45.65367 -110.22304,-45.65367l16.78235,-12.08898c0,0 59.44933,51.62705 73.52944,43.52032c16.35568,-9.24451 0.99556,-72.6761 0.99556,-72.6761l15.36011,-42.09809z" fill="#8DC63F"/>
       <path stroke="#FFFFFF" id="svg_113" d="m754.04986,425.81797c-42.09809,11.09342 -93.15625,-55.46708 -93.15625,-55.46708l16.78235,-12.08898c0,0 58.16932,52.76484 74.38278,43.09365" stroke-miterlimit="10" stroke-width="0.5" fill="none"/>
      </g>
     </g>
    </g>
    <g stroke="null" id="svg_114">
     <path stroke="null" id="svg_115" d="m470.59886,821.62536c-35.12915,0 -106.24079,-10.3823 -107.66302,8.10673s48.49814,9.52896 86.61398,9.52896s124.72982,9.52896 124.72982,-5.68893c0,-17.63569 -40.67586,-11.94676 -103.68077,-11.94676z" fill="#00B9F2"/>
     <g stroke="null" id="svg_116">
      <g stroke="null" id="svg_117">
       <path stroke="null" id="svg_118" d="m531.18598,465.92493l-113.20973,0l-0.28445,0l0,0c1.28001,21.76016 -5.83115,196.97925 13.36899,347.5937l14.93344,2.13335c0.14222,-20.7646 0.56889,-177.92133 17.49346,-305.06894l0.28445,-2.70224l15.78678,0l0.28445,2.70224c16.92457,127.14761 23.04017,284.44656 23.18239,305.06894l14.93344,-2.13335c19.05792,-150.61446 14.50677,-325.97576 13.22677,-347.5937z" fill="#FBC3A9"/>
       <path stroke="null" id="svg_119" d="m519.38144,800.43409c0,0 1.42223,11.37786 19.34237,19.62681s26.8802,13.51121 9.38674,16.78235c-10.95119,1.99113 -49.06703,-4.69337 -51.62705,-13.93788s6.40005,-22.47128 6.40005,-22.47128s2.13335,5.68893 7.11116,6.82672s2.27557,-6.82672 9.38674,-6.82672z" fill="#0F4C87"/>
       <path stroke="null" id="svg_120" d="m429.63855,800.43409c0,0 -1.42223,11.37786 -19.34237,19.62681c-17.92013,8.24895 -26.8802,13.51121 -9.38674,16.78235c10.95119,1.99113 49.06703,-4.69337 51.62705,-13.93788s-6.40005,-22.47128 -6.40005,-22.47128s-2.13335,5.68893 -7.11116,6.82672s-2.27557,-6.82672 -9.38674,-6.82672z" fill="#0F4C87"/>
       <path stroke="null" id="svg_121" d="m534.45711,463.08047l-118.04532,0c0,0 -20.48015,190.72142 8.39117,327.96689l30.00911,0c0,0 -5.12004,-128.14318 10.09785,-279.32653l0,0l12.51565,-0.85334c18.48903,139.37882 18.48903,280.17987 18.48903,280.17987l28.44466,0c21.47572,-164.83678 10.09785,-327.96689 10.09785,-327.96689z" fill="#282F39"/>
      </g>
      <g stroke="null" id="svg_122">
       <path stroke="null" id="svg_123" d="m542.27939,277.47909c-27.87576,-14.79122 -92.72958,-13.22677 -124.0187,0.14222c-38.40029,16.35568 -64.71159,62.43602 -70.68497,109.9386c-9.52896,75.52056 37.40472,110.93416 37.40472,110.93416l12.37343,-16.78235c0,0 -30.29356,-30.00911 -22.18683,-84.62285c4.12448,-27.87576 19.48459,-52.76484 32.9958,-65.42271l0.42667,4.2667c0,0 -4.12448,77.36947 0,134.54322c39.1114,17.49346 131.12987,1.42223 131.12987,1.42223c-1.42223,-29.298 -2.84447,-142.64995 -2.84447,-142.64995s48.78259,29.01355 48.78259,77.36947s-35.84027,75.23612 -35.84027,75.23612l12.2312,16.78235c0,0 51.76927,-39.25363 51.62705,-94.72071c-0.14222,-55.75153 -42.80921,-111.36083 -71.39609,-126.4365z" fill="#0F4C87"/>
       <g stroke="null" id="svg_124">
        <path stroke="null" id="svg_125" d="m548.67944,484.27174c0,0 -17.77791,1.28001 -18.9157,3.84003c-1.13779,2.56002 14.93344,1.99113 14.93344,1.99113l3.98225,-5.83115z" fill="#F8A79B"/>
        <path stroke="null" id="svg_126" d="m549.675,481.71172c0,0 -25.45797,17.63569 -29.58244,24.03573s12.8001,-3.84003 12.8001,-3.84003s-14.649,10.3823 -12.51565,12.37343c1.99113,1.99113 19.62681,-8.5334 19.62681,-8.5334s-14.79122,9.95563 -13.51121,11.52009c1.42223,1.70668 17.35124,-7.53783 17.35124,-7.53783s-10.24008,9.10229 -9.38674,10.66675s27.44909,-21.76016 27.44909,-21.76016l-12.2312,-16.92457z" fill="#FBC3A9"/>
       </g>
       <g stroke="null" id="svg_127">
        <path stroke="null" id="svg_128" d="m398.49165,484.27174c0,0 17.77791,1.28001 18.9157,3.84003c1.13779,2.56002 -14.93344,1.99113 -14.93344,1.99113l-3.98225,-5.83115z" fill="#F8A79B"/>
        <path stroke="null" id="svg_129" d="m397.35387,481.71172c0,0 25.45797,17.63569 29.58244,24.03573c4.12448,6.40005 -12.8001,-3.84003 -12.8001,-3.84003s14.649,10.3823 12.51565,12.37343c-1.99113,1.99113 -19.62681,-8.5334 -19.62681,-8.5334s14.79122,9.95563 13.51121,11.52009c-1.42223,1.70668 -17.35124,-7.53783 -17.35124,-7.53783s10.24008,9.10229 9.38674,10.66675s-27.44909,-22.04461 -27.44909,-22.04461l12.2312,-16.64012z" fill="#FBC3A9"/>
       </g>
       <g stroke="null" id="svg_130">
        <polygon stroke="null" id="svg_131" points="460.5009306669235,221.7275848388672 459.3632048368454,267.80792236328125 489.7989653348923,267.5234375 489.7989653348923,213.47860717773438 " fill="#FBC3A9"/>
        <path stroke="null" id="svg_132" d="m495.20349,187.59397c0,-19.34237 -17.77791,-27.16465 -36.12471,-24.03573c-18.3468,3.12891 -25.0313,19.91126 -21.90239,46.50701s13.08454,34.56026 26.16908,34.56026c16.21345,0 31.85802,-32.9958 31.85802,-57.03154z" fill="#FBC3A9"/>
        <path stroke="null" id="svg_133" d="m488.94566,207.50523c0,0 13.65344,-15.78678 12.08898,-3.69781c-1.56446,12.08898 -12.08898,21.04905 -15.50234,15.36011l3.41336,-11.66231z" fill="#FBC3A9"/>
        <g stroke="null" id="svg_134">
         <g stroke="null" id="svg_135">
          <g stroke="null" id="svg_136">
           <ellipse stroke="null" id="svg_137" ry="3.69781" rx="2.27557" cy="199.11406" cx="466.75883" fill="#0F0908"/>
          </g>
          <g stroke="null" id="svg_138">
           <ellipse stroke="null" id="svg_139" ry="3.69781" rx="2.27557" cy="199.11406" cx="444.71422" fill="#0F0908"/>
          </g>
         </g>
        </g>
        <path stroke="null" id="svg_140" d="m451.25649,199.3985c-0.42667,2.56002 -1.28001,7.25339 -2.56002,11.37786c0,0 -1.8489,-1.99113 -2.56002,-0.28445c-0.71112,1.8489 1.99113,2.70224 1.99113,2.70224s2.4178,5.12004 6.40005,1.28001c0,0 3.98225,-0.85334 2.98669,-2.84447s-2.4178,0.28445 -2.4178,0.28445s0.99556,-5.54671 1.13779,-12.2312c0,-1.13779 -0.85334,-2.13335 -1.99113,-2.4178c0,0 0,0 -0.14222,0c-1.42223,-0.14222 -2.70224,0.71112 -2.84447,2.13335z" fill="#F8A79B"/>
        <path stroke="null" id="svg_141" d="m459.64767,190.29621c0,0 8.96007,-6.25782 14.22233,2.27557c0,0 3.12891,-3.84003 -2.4178,-7.11116s-13.79566,-2.4178 -11.80453,4.83559z" fill="#FFDE17"/>
        <path stroke="null" id="svg_142" d="m452.10983,190.29621c0,0 -8.96007,-6.25782 -14.22233,2.27557c0,0 -3.12891,-3.84003 2.4178,-7.11116s13.93788,-2.4178 11.80453,4.83559z" fill="#FFDE17"/>
        <g stroke="null" id="svg_143">
         <path stroke="null" id="svg_144" d="m466.33216,218.59865c-1.28001,-2.70224 -6.40005,1.99113 -14.36455,0.99556c-4.97781,-0.71112 -6.68449,-2.84447 -8.24895,-0.42667c-1.70668,2.56002 0.14222,8.96007 8.5334,9.67118c8.39117,0.71112 16.35568,-5.54671 14.0801,-10.24008z" fill="#0F0908"/>
         <path stroke="null" id="svg_145" d="m451.96761,219.59421c5.54671,0.71112 9.81341,-1.28001 12.2312,-1.70668c-2.70224,2.4178 -7.25339,4.2667 -11.94676,3.84003c-3.69781,-0.28445 -6.1156,-1.70668 -7.53783,-3.41336c1.42223,-0.71112 3.27114,0.71112 7.25339,1.28001z" fill="#FFFFFF"/>
         <path stroke="null" id="svg_146" d="m464.48326,224.71425c-2.70224,2.56002 -7.39561,4.40892 -12.2312,3.98225c-0.56889,0 -0.99556,-0.14222 -1.42223,-0.14222c4.55115,-5.97338 9.81341,-5.40448 13.65344,-3.84003z" fill="#F15B40"/>
        </g>
        <path stroke="null" id="svg_147" d="m443.14977,172.94497c0,0 3.55558,-4.40892 11.37786,-1.8489c7.82228,2.56002 8.96007,31.00468 33.13802,28.01799c0,0 -1.13779,7.9645 2.70224,13.22677c0,0 -5.40448,12.8001 0,15.21789s8.24895,-22.32906 17.20902,-36.97805c8.96007,-14.649 -9.38674,-21.90239 -14.22233,-23.60906s-8.96007,-16.07123 -30.29356,-17.06679c-21.33349,-1.13779 -22.47128,19.05792 -22.47128,19.05792s-6.96894,2.13335 -7.68006,8.96007c-0.71112,6.82672 3.55558,17.49346 3.55558,17.49346s0,-12.37343 6.68449,-22.47128z" fill="#FFDE17"/>
       </g>
       <path stroke="null" id="svg_148" d="m500.03908,267.38123c-17.06679,-1.28001 -35.55582,-0.56889 -51.76927,1.8489c2.4178,8.96007 9.10229,24.74685 26.59575,24.74685c17.06679,0 23.04017,-16.64012 25.17352,-26.59575z" fill="#FBC3A9"/>
       <path stroke="null" id="svg_149" d="m611.11546,380.02207c-5.54671,2.13335 -15.07567,7.82228 -15.92901,22.6135c-0.71112,12.94232 8.81784,18.63125 16.21345,21.04905c1.42223,-6.40005 2.27557,-13.08454 2.13335,-20.05348c0.14222,-7.9645 -0.85334,-15.78678 -2.4178,-23.60906z" fill="#FBB040"/>
       <path stroke="null" id="svg_150" d="m366.34919,394.52885c-0.71112,-14.93344 -10.52452,-20.62238 -16.07123,-22.75573c-1.13779,5.12004 -2.13335,10.3823 -2.70224,15.64456c-1.28001,10.3823 -1.56446,20.05348 -0.99556,29.01355c7.25339,-1.56446 20.48015,-6.68449 19.76904,-21.90239z" fill="#FBB040"/>
       <circle stroke="null" id="svg_151" r="3.12891" cy="305.21263" cx="473.15888" fill="#E6E7E8"/>
       <circle stroke="null" id="svg_152" r="3.12891" cy="325.12389" cx="473.15888" fill="#E6E7E8"/>
      </g>
     </g>
    </g>
   </g>
   <path stroke="null" id="svg_153" d="m308.32209,93.58438c-50.48927,-11.94676 -57.60043,17.77791 -60.44489,37.68917s-29.15577,20.62238 -22.04461,47.6448s-24.88907,44.80033 -24.88907,44.80033s14.22233,10.24008 36.97805,-10.09785s32.71135,9.38674 66.13383,-6.96894s44.80033,14.649 69.68941,-11.09342s4.97781,-33.70692 27.02242,-55.75153s-1.42223,-47.6448 -24.17796,-41.95587s-41.24475,2.13335 -68.26718,-4.2667z" fill="#FFFFFF"/>
  </g>
  <g id="Text"/>
 </g>
</svg>