<svg width="310.42" height="310.42" xmlns="http://www.w3.org/2000/svg">

 <g>
  <title>background</title>
  <rect fill="none" id="canvas_background" height="602" width="802" y="-1" x="-1"/>
 </g>
 <g>
  <title>Layer 1</title>
  <g id="svg_1">
   <g id="svg_2">
    <path fill="#888888" id="svg_3" d="m273.587,214.965c49.11,-49.111 49.109,-129.021 0,-178.132c-49.111,-49.111 -129.02,-49.111 -178.13,0c-41.664,41.664 -47.974,103.629 -18.947,152.017c0,0 2.085,3.498 -0.731,6.312c-16.065,16.064 -64.263,64.263 -64.263,64.263c-12.791,12.79 -15.836,30.675 -4.493,42.02l1.953,1.951c11.343,11.345 29.229,8.301 42.019,-4.49c0,0 48.096,-48.097 64.128,-64.128c2.951,-2.951 6.448,-0.866 6.448,-0.866c48.387,29.026 110.352,22.717 152.016,-18.947zm-154.876,-23.255c-36.288,-36.288 -36.287,-95.332 0.001,-131.62c36.288,-36.287 95.332,-36.288 131.619,0c36.288,36.287 36.288,95.332 0,131.62c-36.288,36.286 -95.331,36.286 -131.62,0z"/>
    <g id="svg_4">
     <path fill="#888888" id="svg_5" d="m126.75,118.424c-1.689,0 -3.406,-0.332 -5.061,-1.031c-6.611,-2.798 -9.704,-10.426 -6.906,-17.038c17.586,-41.559 65.703,-61.062 107.261,-43.476c6.611,2.798 9.704,10.426 6.906,17.038c-2.799,6.612 -10.425,9.703 -17.039,6.906c-28.354,-11.998 -61.186,1.309 -73.183,29.663c-2.099,4.959 -6.913,7.938 -11.978,7.938z"/>
    </g>
   </g>
  </g>
  <g id="svg_6"/>
  <g id="svg_7"/>
  <g id="svg_8"/>
  <g id="svg_9"/>
  <g id="svg_10"/>
  <g id="svg_11"/>
  <g id="svg_12"/>
  <g id="svg_13"/>
  <g id="svg_14"/>
  <g id="svg_15"/>
  <g id="svg_16"/>
  <g id="svg_17"/>
  <g id="svg_18"/>
  <g id="svg_19"/>
  <g id="svg_20"/>
 </g>
</svg>